<svg width="464" height="464" viewBox="0 0 464 464" fill="none" xmlns="http://www.w3.org/2000/svg">
<path d="M67.3635 275.672L55.1881 275.922L49.0077 276.034C46.9382 276.034 44.8595 276.034 42.79 276.08H42.3817V275.662L42.326 265.278V264.805H42.79L55.0768 264.86C59.1785 264.86 63.271 264.963 67.3635 265.009H67.6233V265.26C67.6233 267.023 67.5398 268.767 67.5027 270.503L67.3635 275.672ZM67.3635 275.672L67.2336 270.419C67.2336 268.693 67.1315 266.986 67.1129 265.287L67.3635 265.538C63.271 265.584 59.1785 265.686 55.0768 265.686L42.79 265.751L43.254 265.287V275.672L42.8364 275.254C44.8595 275.254 46.8825 275.254 48.9148 275.31L55.0211 275.412L67.3635 275.672Z" fill="#EBEBEB"/>
<path d="M53.6569 288.766L41.4816 289.016L35.3011 289.128C33.2317 289.128 31.1529 289.128 29.0835 289.174H28.6752V288.756L28.6195 278.4V277.927H29.0835L41.3702 277.982C45.4627 277.982 49.5645 278.084 53.6569 278.131H53.9168V278.4C53.9168 280.163 53.8425 281.908 53.7961 283.643L53.6569 288.766ZM53.6569 288.766L53.527 283.513C53.527 281.787 53.4249 280.08 53.4064 278.381L53.6569 278.632C49.5645 278.678 45.4627 278.78 41.3702 278.78L29.0835 278.845L29.5475 278.381L29.5011 288.766L29.0835 288.348C31.1065 288.348 33.1296 288.348 35.1619 288.404L41.2681 288.506L53.6569 288.766Z" fill="#EBEBEB"/>
<path d="M272.062 138.161L259.886 138.42L253.706 138.522C251.636 138.522 249.558 138.522 247.488 138.578H247.08V138.161L247.024 127.776V127.312H247.488L259.775 127.377C263.877 127.377 267.969 127.479 272.062 127.526H272.322V127.776C272.322 129.539 272.238 131.293 272.192 133.029L272.062 138.161ZM272.062 138.161L271.932 132.917C271.932 131.191 271.83 129.474 271.811 127.776L272.062 128.036C267.969 128.082 263.877 128.175 259.775 128.185L247.488 128.24L247.952 127.776L247.906 138.161L247.488 137.752C249.511 137.752 251.534 137.752 253.567 137.799L259.673 137.901L272.062 138.161Z" fill="#EBEBEB"/>
<path d="M258.355 151.264L246.18 151.524L239.999 151.626C237.93 151.672 235.851 151.626 233.782 151.682H233.373V151.264L233.318 140.88V140.416H233.782L246.068 140.481C250.161 140.481 254.263 140.583 258.355 140.629H258.615V140.88C258.615 142.643 258.541 144.397 258.494 146.132L258.355 151.264ZM258.355 151.264L258.225 146.021C258.179 144.295 258.123 142.578 258.105 140.88L258.355 141.139C254.263 141.139 250.161 141.279 246.068 141.288L233.782 141.344L234.246 140.88V151.264L233.828 150.856C235.851 150.856 237.874 150.856 239.907 150.856L246.013 150.958L258.355 151.264Z" fill="#EBEBEB"/>
<path d="M244.704 138.161L232.52 138.42L226.339 138.522C224.279 138.522 222.2 138.522 220.131 138.578H219.713V138.161V127.776V127.312H220.177L232.464 127.377C236.556 127.377 240.649 127.479 244.751 127.526H244.992V127.776C244.992 129.539 244.908 131.293 244.871 133.029L244.704 138.161ZM244.704 138.161L244.574 132.917C244.528 131.191 244.463 129.474 244.444 127.776L244.704 128.036C240.603 128.082 236.51 128.175 232.418 128.185L220.131 128.24L220.595 127.776L220.539 138.161L220.131 137.752C222.154 137.752 224.168 137.752 226.2 137.799L232.306 137.901L244.704 138.161Z" fill="#EBEBEB"/>
<path d="M434.916 288.766L422.732 289.016L416.551 289.128C414.491 289.128 412.412 289.128 410.343 289.174H409.925V288.756L409.879 278.4V277.927H410.343L422.63 277.982C426.722 277.982 430.824 278.084 434.916 278.131H435.167V278.4C435.167 280.163 435.093 281.908 435.046 283.643L434.916 288.766ZM434.916 288.766L434.786 283.513C434.786 281.787 434.675 280.08 434.666 278.381L434.916 278.632C430.824 278.678 426.722 278.78 422.63 278.78L410.343 278.845L410.807 278.381L410.751 288.766L410.343 288.348C412.366 288.348 414.389 288.348 416.412 288.404L422.518 288.506L434.916 288.766Z" fill="#EBEBEB"/>
<path d="M421.21 53.8796L409.025 54.1301L402.845 54.2415C400.785 54.2415 398.706 54.2415 396.636 54.2415H396.256V53.8332V43.4489V42.9756H396.729L409.016 43.0313C413.108 43.0313 417.201 43.1333 421.303 43.1797H421.553V43.4303C421.553 45.1842 421.47 46.9381 421.433 48.6735L421.21 53.8796ZM421.21 53.8796L421.08 48.6271C421.033 46.901 420.968 45.1935 420.95 43.4953L421.21 43.7458C417.108 43.7458 413.016 43.8943 408.923 43.8943L396.636 43.95L397.1 43.4953L397.045 53.8796L396.636 53.462C398.659 53.462 400.673 53.462 402.705 53.462L408.812 53.5733L421.21 53.8796Z" fill="#EBEBEB"/>
<path d="M434.916 66.9737L422.732 67.2242L416.551 67.3356C414.491 67.3356 412.412 67.3356 410.343 67.3356H409.925V66.918L409.879 56.6079V56.1346H410.343L422.63 56.1903C426.722 56.1903 430.824 56.2924 434.916 56.3388H435.167V56.6079C435.167 58.3618 435.093 60.1158 435.046 61.8511L434.916 66.9737ZM434.916 66.9737L434.786 61.7212C434.786 59.9951 434.675 58.2876 434.666 56.5894L434.916 56.8399C430.824 56.8399 426.722 56.9884 422.63 56.9884L410.343 57.0441L410.807 56.5894L410.751 66.9644L410.343 66.5561C412.366 66.5561 414.389 66.5561 416.412 66.5561L422.518 66.6674L434.916 66.9737Z" fill="#EBEBEB"/>
<path d="M67.3635 53.8796L55.1881 54.1301L49.0077 54.2415C46.9382 54.2415 44.8595 54.2415 42.79 54.2415H42.3817V53.8332L42.326 43.4489V42.9756H42.79L55.0768 43.0313C59.1785 43.0313 63.271 43.1333 67.3635 43.1797H67.6233V43.4303C67.6233 45.1842 67.5398 46.9381 67.5027 48.6735L67.3635 53.8796ZM67.3635 53.8796L67.2336 48.6271C67.2336 46.901 67.1315 45.1935 67.1129 43.4953L67.3635 43.7458C63.271 43.7458 59.1785 43.8943 55.0768 43.8943L42.79 43.95L43.254 43.4953V53.8796L42.8364 53.462C44.8595 53.462 46.8825 53.462 48.9148 53.462L55.0211 53.5733L67.3635 53.8796Z" fill="#EBEBEB"/>
<path d="M38.2429 280.97H258.532L263.107 190.583H33.6586L38.2429 280.97Z" fill="#EBEBEB"/>
<path d="M248.092 232H155.997L154.271 200.615H250.105L248.092 232ZM157.045 230.886H247.061L248.917 201.729H155.44L157.045 230.886Z" fill="#DBDBDB"/>
<path d="M246.393 268.062H159.616L158.205 239.74H248.221L246.393 268.062ZM160.655 266.948H245.345L246.978 240.844H159.356L160.655 266.948Z" fill="#DBDBDB"/>
<path d="M210.907 219.676H195.437L194.509 212.104H211.927L210.907 219.676ZM196.411 218.563H209.932L210.619 213.217H195.724L196.411 218.563Z" fill="#DBDBDB"/>
<path d="M210.907 257.678H195.437L194.509 250.115H211.927L210.907 257.678ZM196.411 256.573H209.932L210.619 251.228H195.724L196.411 256.573Z" fill="#DBDBDB"/>
<path d="M139.766 232H47.6714L45.936 200.578H141.78L139.766 232ZM48.72 230.886H138.736L140.592 201.729H47.1146L48.72 230.886Z" fill="#DBDBDB"/>
<path d="M138.059 268.062H51.272L49.8615 239.74H139.877L138.059 268.062ZM52.3299 266.948H137.019L138.652 240.844H51.04L52.3299 266.948Z" fill="#DBDBDB"/>
<path d="M102.581 219.676H87.1114L86.1277 212.104H103.556L102.581 219.676ZM88.0858 218.563H101.607L102.293 213.217H87.4455L88.0858 218.563Z" fill="#DBDBDB"/>
<path d="M102.581 257.678H87.1114L86.1277 250.115H103.556L102.581 257.678ZM88.0858 256.573H101.607L102.293 251.228H87.4455L88.0858 256.573Z" fill="#DBDBDB"/>
<path d="M57.9999 280.97L56.6172 290.817L53.8332 310.602H48.3951V280.97H57.9999Z" fill="#EBEBEB"/>
<path d="M57.9999 280.97L56.6172 290.817H48.3951V280.97H57.9999Z" fill="#DBDBDB"/>
<path d="M238.774 280.97L240.157 290.817L242.941 310.602H248.379V280.97H238.774Z" fill="#EBEBEB"/>
<path d="M238.774 280.97L240.157 290.817H248.379V280.97H238.774Z" fill="#DBDBDB"/>
<path d="M115.341 190.546V123.906H98.5628V190.546H115.341Z" fill="#C7C7C7"/>
<path d="M115.341 127.665V120.343H98.5628V127.665H115.341Z" fill="#DBDBDB"/>
<path d="M115.341 139.766V137.047H98.5628V139.766H115.341Z" fill="#DBDBDB"/>
<path d="M115.341 181.804V174.483H98.5628V181.804H115.341Z" fill="#DBDBDB"/>
<path d="M127.071 190.546V112.808H115.341V190.546H127.071Z" fill="#DBDBDB"/>
<path d="M124.677 150.011V120.111H117.643V150.011H124.677Z" fill="#EBEBEB"/>
<path d="M210.606 182.115L155.321 127.463L147.075 135.805L202.36 190.457L210.606 182.115Z" fill="#C7C7C7"/>
<path d="M196 170.934L174.736 149.913L169.791 154.916L191.055 175.936L196 170.934Z" fill="#DBDBDB"/>
<path d="M146.986 190.555V131.507H127.071V190.555H146.986Z" fill="#A6A6A6"/>
<path d="M146.986 184.291V178.788H127.071V184.291H146.986Z" fill="#C7C7C7"/>
<path d="M146.986 175.188V173.053H127.071V175.188H146.986Z" fill="#C7C7C7"/>
<path d="M76.7755 190.606L98.6638 139.611L86.0173 134.183L64.129 185.178L76.7755 190.606Z" fill="#A6A6A6"/>
<path d="M79.0943 185.181L81.1331 180.431L68.4865 175.003L66.4478 179.753L79.0943 185.181Z" fill="#C7C7C7"/>
<path d="M92.1204 154.866L94.1592 150.116L81.5127 144.688L79.4739 149.437L92.1204 154.866Z" fill="#C7C7C7"/>
<path d="M90.1444 160.721L90.9261 158.876L78.2649 153.509L77.4831 155.353L90.1444 160.721Z" fill="#C7C7C7"/>
<path d="M274.586 39.6442V176.32H410.464V39.6442H274.586ZM406.882 172.692H278.168V43.2262H406.882V172.692Z" fill="#EBEBEB"/>
<path d="M406.882 43.2262V172.691H345.708V44.1635H342.135V172.691H278.168V43.2262H406.882Z" fill="white"/>
<path d="M345.708 44.1635H342.135V174.482H345.708V44.1635Z" fill="#EBEBEB"/>
<path d="M271.338 51.8751L413.712 51.8751V46.8825L271.338 46.8825V51.8751Z" fill="#EBEBEB"/>
<path d="M271.338 57.4895L413.712 57.4895V52.4969L271.338 52.4969V57.4895Z" fill="#EBEBEB"/>
<path d="M271.338 63.104L413.712 63.104V58.1114L271.338 58.1114V63.104Z" fill="#EBEBEB"/>
<path d="M271.338 68.7091L413.712 68.7091V63.7165L271.338 63.7165V68.7091Z" fill="#EBEBEB"/>
<path d="M271.338 74.3235L413.712 74.3235V69.3308L271.338 69.3308V74.3235Z" fill="#EBEBEB"/>
<path d="M271.338 79.9379L413.712 79.9379V74.9452L271.338 74.9452V79.9379Z" fill="#EBEBEB"/>
<path d="M271.338 85.5522L413.712 85.5522V80.5596L271.338 80.5596V85.5522Z" fill="#EBEBEB"/>
<path d="M271.338 91.1666L413.712 91.1666V86.174L271.338 86.174V91.1666Z" fill="#EBEBEB"/>
<path d="M271.338 96.7811L413.712 96.7811V91.7885L271.338 91.7885V96.7811Z" fill="#EBEBEB"/>
<path d="M282.882 45.871H281.982V119.916H282.882V45.871Z" fill="#263238"/>
<path d="M280.831 124.092H284.014L283.216 119.517H281.629L280.831 124.092Z" fill="#263238"/>
<path d="M279.653 45.871H278.753V171.281H279.653V45.871Z" fill="#263238"/>
<path d="M277.611 174.64H280.785L279.987 170.074H278.409L277.611 174.64Z" fill="#263238"/>
<path d="M265.779 49.3881L419.271 49.3881V38.9481L265.779 38.9481V49.3881Z" fill="#DBDBDB"/>
<path d="M232 426.156C299.109 426.156 353.512 415.989 353.512 403.448C353.512 390.907 299.109 380.74 232 380.74C164.891 380.74 110.488 390.907 110.488 403.448C110.488 415.989 164.891 426.156 232 426.156Z" fill="#EBEBEB"/>
<path d="M28.4154 310.602L79.3162 310.379L130.208 310.295L232 310.138L333.792 310.295L384.684 310.379L435.585 310.602L384.684 310.834L333.792 310.917L232 311.066L130.208 310.908L79.3162 310.834L28.4154 310.602Z" fill="#263238"/>
<path d="M409.712 186.528C405.443 182.343 399.922 177.248 393.398 179.104C387.254 180.793 384.907 187.502 383.802 193.089C382.392 200.281 381.287 207.557 380.146 214.795C379.005 222.033 377.9 229.448 376.852 236.779C376.233 240.918 375.645 245.057 375.088 249.196L374.225 255.404C373.947 257.437 373.604 259.469 373.492 261.52C373.492 262.169 374.485 262.262 374.624 261.64C375.413 258.188 375.738 254.597 376.248 251.089C376.759 247.581 377.269 244.046 377.789 240.519C378.81 233.522 379.855 226.525 380.925 219.528C381.996 212.531 383.085 205.53 384.192 198.527C385.12 192.597 385.593 185.229 390.846 181.322C393.723 179.178 397.407 179.15 400.673 180.394C404.125 181.712 406.891 184.19 409.601 186.639C409.675 186.723 409.796 186.593 409.712 186.528Z" fill="#263238"/>
<path d="M403.866 182.241C403.866 182.241 395.142 179.104 390.874 185.47C386.605 191.836 391.709 208.039 431.446 217.18C430.279 204.757 427.049 192.617 421.887 181.257C413.331 162.679 398.158 169.713 403.866 182.241Z" fill="#F49D37"/>
<path d="M429.126 214.526C428.525 213.414 427.859 212.339 427.13 211.306C426.462 210.285 425.794 209.264 425.117 208.243C424.606 207.482 424.087 206.731 423.558 205.97C423.558 205.784 423.604 205.598 423.632 205.404L423.771 204.373C423.864 203.631 423.975 202.879 424.087 202.137C424.198 201.395 424.319 200.661 424.458 199.919C424.555 199.125 424.729 198.341 424.978 197.581C425.033 197.469 424.82 197.404 424.81 197.581C424.723 198.028 424.602 198.469 424.449 198.898C424.356 199.232 424.272 199.566 424.189 199.901C423.994 200.652 423.808 201.413 423.641 202.174C423.474 202.935 423.354 203.575 423.233 204.281C423.168 204.624 423.122 204.958 423.075 205.301C422.37 204.29 421.646 203.288 420.904 202.304C418.788 199.52 416.561 196.857 414.25 194.24C414.25 194.24 414.25 194.24 414.25 194.175C414.454 189.999 414.352 185.823 415.28 181.758C415.28 181.647 415.141 181.582 415.113 181.693C414.241 185.544 413.378 189.59 413.628 193.572C412.802 192.644 411.958 191.716 411.113 190.788C409.171 188.709 407.197 186.664 405.193 184.653C405.109 184.579 404.979 184.653 405.063 184.774C408.413 188.384 411.559 192.133 414.686 195.957C412.261 195.921 409.836 196.011 407.42 196.226C404.729 196.43 402.056 196.773 399.374 197.154C399.263 197.154 399.3 197.349 399.374 197.33C402.038 196.945 404.721 196.703 407.41 196.606C410 196.504 412.579 196.606 415.169 196.606C416.839 198.685 418.494 200.776 420.133 202.879H419.762C419.15 202.879 418.546 202.879 417.906 202.879C416.7 202.879 415.493 202.991 414.287 203.093C411.819 203.295 409.366 203.661 406.946 204.188C406.928 204.194 406.912 204.206 406.9 204.222C406.889 204.237 406.883 204.257 406.883 204.276C406.883 204.296 406.889 204.315 406.9 204.33C406.912 204.346 406.928 204.358 406.946 204.364C409.387 204.086 411.837 203.863 414.287 203.78C415.466 203.733 416.635 203.733 417.804 203.733C418.417 203.733 419.02 203.733 419.66 203.733C419.997 203.775 420.339 203.743 420.662 203.64C421.73 205.023 422.806 206.424 423.864 207.807C424.708 208.921 425.534 210.034 426.351 211.166C427.168 212.299 427.947 213.579 428.875 214.656C429.051 214.711 429.172 214.619 429.126 214.526Z" fill="#263238"/>
<path d="M407.67 191.27C406.261 191.088 404.84 191.016 403.42 191.057C402 191.057 400.58 191.103 399.161 191.149C399.147 191.145 399.132 191.144 399.117 191.146C399.103 191.148 399.089 191.154 399.077 191.162C399.065 191.171 399.056 191.182 399.049 191.195C399.042 191.208 399.039 191.223 399.039 191.238C399.039 191.252 399.042 191.267 399.049 191.28C399.056 191.293 399.065 191.304 399.077 191.313C399.089 191.321 399.103 191.327 399.117 191.329C399.132 191.332 399.147 191.33 399.161 191.326C400.599 191.224 402.028 191.205 403.476 191.224C404.923 191.242 406.26 191.372 407.643 191.335C407.707 191.335 407.717 191.279 407.67 191.27Z" fill="#263238"/>
<path d="M420.143 194.472C420.301 193.117 420.477 191.753 420.765 190.416C420.769 190.402 420.77 190.388 420.768 190.373C420.766 190.359 420.76 190.345 420.752 190.333C420.743 190.321 420.732 190.311 420.719 190.305C420.705 190.298 420.691 190.295 420.676 190.295C420.662 190.295 420.647 190.298 420.634 190.305C420.621 190.311 420.61 190.321 420.601 190.333C420.593 190.345 420.587 190.359 420.585 190.373C420.582 190.388 420.584 190.402 420.588 190.416C420.384 191.753 420.124 193.08 419.929 194.416C419.827 195.084 419.734 195.752 419.66 196.42C419.543 197.032 419.487 197.654 419.493 198.276C419.5 198.302 419.516 198.324 419.537 198.34C419.557 198.355 419.583 198.364 419.609 198.364C419.635 198.364 419.661 198.355 419.682 198.34C419.703 198.324 419.718 198.302 419.725 198.276C419.847 197.665 419.916 197.044 419.929 196.42C419.994 195.808 420.069 195.112 420.143 194.472Z" fill="#263238"/>
<path d="M417.526 179.429C417.182 180.756 416.839 182.092 416.598 183.438C416.477 184.115 416.375 184.802 416.282 185.489C416.153 186.148 416.106 186.822 416.143 187.493C416.143 187.508 416.149 187.522 416.159 187.533C416.17 187.543 416.184 187.549 416.199 187.549C416.214 187.549 416.228 187.543 416.238 187.533C416.249 187.522 416.254 187.508 416.254 187.493C416.408 186.865 416.51 186.226 416.561 185.581C416.653 184.926 416.756 184.267 416.867 183.605C417.108 182.222 417.359 180.821 417.702 179.485C417.721 179.382 417.6 179.317 417.526 179.429Z" fill="#263238"/>
<path d="M365.781 260.026C365.567 257.529 365.317 255.024 365.057 252.527C364.537 247.581 363.925 242.644 363.266 237.679C362.607 232.715 361.966 227.833 361.178 222.933C360.883 220.658 360.377 218.415 359.665 216.233C359.407 215.298 358.938 214.435 358.295 213.71C357.651 212.984 356.85 212.416 355.953 212.048C351.313 210.433 348.13 215.287 346.237 218.711C346.229 218.732 346.229 218.754 346.236 218.775C346.243 218.796 346.258 218.813 346.276 218.824C346.295 218.835 346.318 218.839 346.339 218.836C346.361 218.832 346.38 218.821 346.395 218.804C347.527 217.18 350.654 212.614 354.199 212.828C356.584 212.967 358.496 214.684 359.637 220.613C362.495 235.461 365.066 265.529 365.363 267.496C365.521 268.535 366.291 268.498 366.291 267.375C366.282 264.944 365.994 262.476 365.781 260.026Z" fill="#263238"/>
<path d="M347.499 216.902C347.499 216.902 351.582 202.471 342.553 209.682C327.51 221.69 326.981 247.822 326.981 247.822C326.981 247.822 353.707 232.288 357.039 222.052C361.985 206.796 347.499 216.902 347.499 216.902Z" fill="#F49D37"/>
<path d="M352.556 223.982C350.459 224.409 348.334 224.687 346.218 224.984L343.202 225.411C342.525 225.504 341.847 225.569 341.161 225.653C343.156 222.869 345.16 220.177 347.072 217.375C347.146 217.273 346.979 217.161 346.886 217.245C345.305 218.882 343.815 220.605 342.423 222.405C342.033 221.282 341.634 220.168 341.235 219.054C340.78 217.765 340.307 216.475 339.963 215.148C339.963 215.125 339.955 215.104 339.939 215.089C339.923 215.073 339.902 215.064 339.88 215.064C339.858 215.064 339.837 215.073 339.821 215.089C339.805 215.104 339.796 215.125 339.796 215.148C340.158 216.475 340.418 217.82 340.724 219.147C341.031 220.474 341.457 221.69 341.912 222.943C340.929 224.214 339.991 225.513 339.082 226.831C338.618 225.523 338.052 224.261 337.643 222.943C337.637 222.921 337.623 222.902 337.603 222.891C337.583 222.879 337.559 222.876 337.537 222.882C337.515 222.889 337.496 222.903 337.484 222.923C337.473 222.943 337.47 222.967 337.476 222.989C337.95 224.455 338.209 225.977 338.664 227.453C338.052 228.381 337.43 229.244 336.808 230.153C335.732 231.814 334.711 233.513 333.718 235.23C333.642 235.263 333.578 235.319 333.537 235.391C333.495 235.463 333.477 235.546 333.486 235.629C331.797 238.552 330.192 241.512 328.605 244.51C328.6 244.529 328.603 244.55 328.611 244.568C328.62 244.586 328.634 244.601 328.652 244.611C328.67 244.62 328.69 244.624 328.71 244.62C328.73 244.617 328.748 244.608 328.762 244.593C330.349 241.642 332.113 238.765 333.95 235.935C334.234 235.848 334.526 235.792 334.822 235.768L335.75 235.564C336.437 235.415 337.124 235.239 337.81 235.062C339.165 234.728 340.511 234.413 341.884 234.134C341.996 234.134 341.949 233.94 341.829 233.967C340.214 234.274 338.59 234.459 336.957 234.645C336.186 234.738 335.416 234.83 334.646 234.951H334.535C335.463 233.494 336.465 232.046 337.458 230.608C338.451 229.17 339.425 227.824 340.427 226.423C341.355 226.293 342.283 226.052 343.211 225.875L346.32 225.272C348.39 224.854 350.45 224.344 352.529 224.047C352.723 224.131 352.64 223.954 352.556 223.982Z" fill="#263238"/>
<path d="M336.493 225.402L336.131 224.251C335.884 223.458 335.68 222.653 335.518 221.838C335.518 221.727 335.324 221.774 335.351 221.838C335.518 222.655 335.713 223.472 335.899 224.279C336.07 225.097 336.303 225.9 336.595 226.683C336.607 226.723 336.635 226.757 336.673 226.777C336.71 226.797 336.754 226.802 336.794 226.789C336.835 226.777 336.869 226.749 336.889 226.712C336.909 226.674 336.913 226.63 336.901 226.59C336.79 226.219 336.623 225.81 336.493 225.402Z" fill="#263238"/>
<path d="M355.294 220.641C354.078 220.827 352.844 220.91 351.582 221.013C350.32 221.115 349.132 221.291 347.87 221.477C347.805 221.477 347.805 221.588 347.87 221.588C349.104 221.504 350.32 221.402 351.582 221.245C352.844 221.087 354.032 220.901 355.294 220.818C355.424 220.808 355.424 220.623 355.294 220.641Z" fill="#263238"/>
<path d="M385.454 241.763C384.981 231.137 384.303 220.53 383.236 209.951C382.707 204.68 382.113 199.409 381.38 194.175C380.715 189.02 379.698 183.916 378.336 178.9C377.241 175.077 375.803 171.244 373.251 168.135C372.06 166.577 370.492 165.348 368.695 164.564C366.897 163.779 364.93 163.466 362.978 163.653C358.338 164.228 354.58 167.151 351.341 170.334C347.712 173.907 344.381 177.805 341.021 181.628C340.168 182.556 339.323 183.568 338.488 184.542C338.414 184.626 338.544 184.756 338.618 184.663C341.903 180.886 345.327 177.239 348.9 173.703C352.204 170.455 355.61 166.91 360.194 165.574C362.317 164.892 364.592 164.837 366.746 165.416C368.448 165.963 369.982 166.937 371.2 168.246C373.78 170.928 375.228 174.557 376.258 178.074C379.116 187.837 380.137 198.072 381.195 208.16C382.271 218.368 383.004 228.678 383.515 238.969C384.025 249.261 384.443 259.673 385.436 269.983C385.556 271.254 385.723 272.526 385.881 273.788C385.992 274.642 387.319 274.642 387.245 273.788C386.419 263.097 385.927 252.416 385.454 241.763Z" fill="#263238"/>
<path d="M350.784 171.476C350.784 171.476 356.844 160.247 349.68 156.628C342.515 153.009 318.517 179.828 311.502 218.971C311.502 218.971 350.255 201.831 363.414 184.746C376.573 167.662 361.632 163.913 350.784 171.476Z" fill="#F49D37"/>
<path d="M356.445 180.607C352.092 180.607 347.749 180.283 343.397 180.311C344.204 179.383 345.021 178.455 345.847 177.527C347.066 176.283 348.204 174.963 349.253 173.573C349.308 173.48 349.178 173.351 349.095 173.425C347.915 174.441 346.813 175.545 345.801 176.728C344.705 177.892 343.62 179.055 342.543 180.218C340.873 182.018 339.249 183.846 337.616 185.684V182.9C337.616 181.415 337.616 179.939 337.662 178.464C337.662 175.466 337.662 172.46 337.894 169.471C337.894 169.36 337.718 169.36 337.708 169.471C337.504 172.469 337.198 175.457 337.049 178.473C336.975 179.949 336.938 181.424 336.92 182.9C336.92 183.67 336.92 184.431 336.92 185.192C336.92 185.609 336.92 186.046 336.92 186.472C336.669 186.76 336.409 187.039 336.149 187.326C332.679 191.298 329.375 195.409 326.155 199.585C326.155 199.362 326.155 199.121 326.099 198.898C326.099 198.434 325.997 197.97 325.951 197.516C325.83 196.513 325.7 195.52 325.552 194.527C325.403 193.535 325.264 192.671 325.106 191.743C324.948 190.815 324.67 189.637 324.586 188.579C324.586 188.557 324.578 188.536 324.562 188.52C324.546 188.504 324.525 188.495 324.503 188.495C324.481 188.495 324.46 188.504 324.444 188.52C324.428 188.536 324.419 188.557 324.419 188.579C324.601 189.635 324.721 190.701 324.781 191.771C324.874 192.699 324.958 193.683 325.041 194.639C325.125 195.595 325.217 196.56 325.32 197.516C325.366 197.98 325.403 198.444 325.459 198.898C325.459 199.133 325.487 199.365 325.542 199.594C325.558 199.789 325.622 199.977 325.728 200.142C325.171 200.866 324.614 201.58 324.067 202.304C321.867 205.209 319.714 208.151 317.571 211.092C317.497 211.185 317.626 211.306 317.701 211.213C319.742 208.546 321.833 205.923 323.974 203.343C325.57 203.408 327.194 203.288 328.79 203.269C330.386 203.251 332.15 203.269 333.829 203.269C333.848 203.263 333.864 203.251 333.876 203.235C333.887 203.22 333.893 203.201 333.893 203.181C333.893 203.162 333.887 203.142 333.876 203.127C333.864 203.111 333.848 203.099 333.829 203.093C332.14 203.093 330.461 203.149 328.781 203.149C327.25 203.149 325.691 203.084 324.141 203.149C325.997 200.866 327.909 198.611 329.802 196.346L331.881 193.887C332.526 193.974 333.179 193.996 333.829 193.952H336.121C337.551 193.952 338.98 193.952 340.418 193.896C343.369 193.85 346.329 193.748 349.29 193.739C349.308 193.733 349.325 193.721 349.336 193.705C349.347 193.689 349.354 193.67 349.354 193.651C349.354 193.631 349.347 193.612 349.336 193.596C349.325 193.58 349.308 193.568 349.29 193.562C346.32 193.562 343.36 193.395 340.4 193.321C338.97 193.321 337.532 193.238 336.103 193.219H333.811C333.375 193.219 332.883 193.219 332.484 193.219C334.117 191.298 335.741 189.359 337.365 187.438C337.387 187.428 337.406 187.414 337.422 187.397C337.438 187.379 337.451 187.358 337.458 187.335C339.045 185.479 340.632 183.623 342.246 181.767C342.46 181.508 342.682 181.257 342.905 181.007C347.425 181.146 351.925 180.849 356.445 180.942C356.565 180.793 356.565 180.607 356.445 180.607Z" fill="#263238"/>
<path d="M354.217 188.31H353.169C353.156 188.305 353.143 188.304 353.13 188.306C353.116 188.308 353.104 188.313 353.093 188.321C353.082 188.328 353.073 188.339 353.067 188.35C353.061 188.362 353.058 188.375 353.058 188.389C353.058 188.402 353.061 188.415 353.067 188.427C353.073 188.439 353.082 188.449 353.093 188.457C353.104 188.464 353.116 188.47 353.13 188.471C353.143 188.473 353.156 188.472 353.169 188.468H354.227C354.24 188.458 354.25 188.446 354.257 188.432C354.264 188.418 354.267 188.402 354.266 188.386C354.265 188.37 354.26 188.355 354.252 188.342C354.243 188.328 354.231 188.317 354.217 188.31Z" fill="#263238"/>
<path d="M351.879 188.319C350.478 188.319 349.095 188.273 347.694 188.236L345.596 188.171C344.949 188.087 344.295 188.087 343.648 188.171C343.63 188.171 343.614 188.177 343.602 188.19C343.589 188.202 343.583 188.218 343.583 188.236C343.583 188.253 343.589 188.269 343.602 188.281C343.614 188.294 343.63 188.3 343.648 188.3C344.288 188.435 344.944 188.482 345.596 188.44H347.684C349.076 188.44 350.468 188.44 351.87 188.44C352 188.505 351.99 188.328 351.879 188.319Z" fill="#263238"/>
<path d="M339.694 201.376C336.859 200.908 333.993 200.647 331.12 200.597C331.12 200.597 331.12 200.662 331.12 200.662C333.959 200.931 336.818 201.088 339.639 201.59C339.759 201.59 339.806 201.376 339.694 201.376Z" fill="#263238"/>
<path d="M328.048 188.932C328.048 188.681 327.983 188.43 327.955 188.189C327.881 187.623 327.797 187.066 327.705 186.509C327.537 185.442 327.352 184.384 327.148 183.326C327.148 183.224 326.962 183.252 326.971 183.326C327.111 184.421 327.222 185.516 327.324 186.612C327.38 187.15 327.417 187.697 327.463 188.236C327.448 188.755 327.523 189.273 327.686 189.767C327.707 189.801 327.737 189.828 327.774 189.845C327.81 189.861 327.85 189.867 327.89 189.861C327.929 189.855 327.966 189.838 327.996 189.811C328.026 189.785 328.047 189.75 328.057 189.711C328.102 189.453 328.099 189.189 328.048 188.932Z" fill="#263238"/>
<path d="M385.12 157.055C383.728 154.475 381.965 151.069 378.503 151.283C375.645 151.459 374.355 154.373 373.743 156.786C371.887 164.21 371.729 172.116 371.358 179.754C370.578 195.91 369.882 212.076 369.78 228.251C369.78 232.733 369.78 237.215 369.78 241.698C369.78 246.18 369.78 250.866 370.105 255.432C370.105 255.521 370.14 255.606 370.203 255.668C370.265 255.731 370.35 255.766 370.439 255.766C370.528 255.766 370.612 255.731 370.675 255.668C370.738 255.606 370.773 255.521 370.773 255.432C370.773 251.525 370.662 247.609 370.643 243.702C370.625 239.795 370.643 236.065 370.717 232.251C370.847 224.517 371.054 216.784 371.339 209.051C371.627 201.367 371.961 193.692 372.267 186.018C372.434 182.176 372.592 178.343 372.768 174.51C372.945 170.678 373.093 167.086 373.52 163.374C373.761 161.305 374.067 159.236 374.494 157.194C374.711 155.676 375.329 154.244 376.285 153.046C376.947 152.396 377.818 152.003 378.743 151.937C379.668 151.871 380.586 152.135 381.334 152.684C382.914 153.82 384.153 155.367 384.916 157.157C384.971 157.259 385.12 157.157 385.12 157.055Z" fill="#263238"/>
<path d="M384.136 155.83C384.136 155.83 381.287 145.77 387.579 150.8C398.056 159.152 398.427 177.369 398.427 177.369C398.427 177.369 379.802 166.548 377.492 159.412C374.04 148.786 384.136 155.83 384.136 155.83Z" fill="#F49D37"/>
<path d="M394.511 169.908C394.344 169.629 394.159 169.36 393.982 169.082C394.005 168.794 394.005 168.506 393.982 168.219C393.982 167.792 393.982 167.356 393.982 166.929C393.982 166.075 394.038 165.23 394.075 164.377C394.075 164.265 393.908 164.265 393.899 164.377C393.899 165.203 393.824 166.038 393.797 166.873C393.797 167.291 393.797 167.708 393.75 168.126C393.75 168.284 393.75 168.469 393.75 168.664C393.02 167.526 392.265 166.403 391.486 165.295L390.799 164.367C390.683 163.276 390.665 162.177 390.744 161.082C390.744 159.913 390.744 158.744 390.808 157.584C390.808 157.463 390.632 157.472 390.632 157.584C390.632 158.799 390.539 160.015 390.474 161.231C390.406 162.095 390.385 162.963 390.409 163.829C388.609 161.379 386.697 159.022 384.767 156.684C384.702 156.6 384.563 156.684 384.628 156.795C385.825 158.308 386.976 159.857 388.099 161.435C385.909 160.925 383.672 160.637 381.454 160.312C381.334 160.312 381.296 160.47 381.454 160.488C383.811 160.841 386.094 161.416 388.451 161.945C388.451 161.945 388.451 161.945 388.498 161.945C389.389 163.183 390.27 164.445 391.143 165.732C391.504 166.251 391.848 166.771 392.2 167.291H392.098L391.375 167.198C390.864 167.133 390.344 167.096 389.834 167.049C388.758 166.966 387.681 166.91 386.605 166.854C386.493 166.854 386.493 167.031 386.605 167.031C387.663 167.031 388.711 167.133 389.76 167.254L391.43 167.448L392.154 167.541H392.368L394.159 170.177C395.216 171.736 396.154 173.397 397.277 174.9C397.342 174.993 397.462 174.9 397.416 174.807C396.545 173.119 395.575 171.482 394.511 169.908Z" fill="#263238"/>
<path d="M389.871 158.549C389.871 158.159 389.871 157.769 389.871 157.38C389.85 156.555 389.884 155.731 389.973 154.911C389.978 154.897 389.979 154.882 389.977 154.868C389.975 154.853 389.969 154.84 389.96 154.828C389.952 154.816 389.941 154.806 389.928 154.799C389.914 154.793 389.9 154.789 389.885 154.789C389.871 154.789 389.856 154.793 389.843 154.799C389.83 154.806 389.819 154.816 389.81 154.828C389.802 154.84 389.796 154.853 389.794 154.868C389.791 154.882 389.793 154.897 389.797 154.911C389.797 155.728 389.704 156.544 389.667 157.352C389.667 157.76 389.667 158.168 389.667 158.577C389.667 158.762 389.667 158.948 389.667 159.143C389.635 159.333 389.635 159.528 389.667 159.718C389.673 159.734 389.684 159.749 389.698 159.759C389.712 159.769 389.729 159.774 389.746 159.774C389.763 159.774 389.78 159.769 389.795 159.759C389.809 159.749 389.819 159.734 389.825 159.718C389.853 159.54 389.853 159.358 389.825 159.18C389.871 158.957 389.871 158.753 389.871 158.549Z" fill="#263238"/>
<path d="M387.57 162.716C386.883 162.595 386.169 162.558 385.473 162.502C384.777 162.446 383.932 162.372 383.171 162.27C383.157 162.266 383.142 162.264 383.128 162.267C383.113 162.269 383.1 162.275 383.088 162.283C383.076 162.292 383.066 162.303 383.059 162.316C383.053 162.329 383.049 162.344 383.049 162.358C383.049 162.373 383.053 162.387 383.059 162.401C383.066 162.414 383.076 162.425 383.088 162.433C383.1 162.442 383.113 162.448 383.128 162.45C383.142 162.452 383.157 162.451 383.171 162.446C384.637 162.539 386.104 162.799 387.57 162.855C387.635 162.855 387.653 162.725 387.57 162.716Z" fill="#263238"/>
<path d="M393.472 162.771C393.495 162.9 393.495 163.032 393.472 163.161V163.486C393.472 163.718 393.472 163.959 393.472 164.191C393.472 164.423 393.472 164.655 393.472 164.896C393.43 165.098 393.43 165.307 393.472 165.509C393.476 165.515 393.482 165.519 393.488 165.523C393.495 165.526 393.502 165.527 393.509 165.527C393.516 165.527 393.523 165.526 393.53 165.523C393.536 165.519 393.542 165.515 393.546 165.509C393.565 165.411 393.565 165.31 393.546 165.212V164.191C393.546 163.95 393.546 163.718 393.546 163.486V163.161C393.546 163.059 393.546 162.855 393.546 162.771C393.546 162.688 393.305 162.604 393.472 162.771Z" fill="#263238"/>
<path d="M385.5 210.656C381.584 207.714 378.076 203.492 372.805 203.288C368.453 203.111 365.381 206.387 363.665 210.034C362.785 211.971 362.074 213.98 361.539 216.038C360.754 218.785 360.011 221.548 359.312 224.325C357.951 229.782 356.791 235.288 355.832 240.844C355.303 243.943 354.811 247.043 354.412 250.124C353.909 253.282 353.599 256.468 353.484 259.664C353.461 259.798 353.492 259.936 353.57 260.047C353.649 260.159 353.768 260.234 353.902 260.258C354.036 260.281 354.174 260.25 354.285 260.172C354.397 260.094 354.473 259.974 354.496 259.84C355.025 257.242 355.248 254.55 355.628 251.915C356.009 249.279 356.417 246.625 356.862 243.99C357.79 238.719 358.793 233.457 359.98 228.214C361.103 223.286 362.208 218.284 363.795 213.486C364.936 210.044 366.764 206.062 370.476 204.8C376.128 202.944 381.259 207.696 385.398 210.804C385.473 210.888 385.593 210.758 385.5 210.656Z" fill="#263238"/>
<path d="M381.454 207.872C381.454 207.872 377.844 197.562 383.06 195.539C390.892 192.514 411.373 215.584 407.364 250.922C407.364 250.922 391.532 242.208 379.849 232.362C368.165 222.516 365.177 209.747 370.318 206.434C375.459 203.121 381.454 207.872 381.454 207.872Z" fill="#F49D37"/>
<path d="M404.998 243.359C404.45 242.127 403.815 240.936 403.095 239.795C402.427 238.58 401.75 237.373 401.044 236.185C399.69 233.856 398.335 231.545 396.943 229.216C396.72 228.845 396.488 228.474 396.256 228.102C396.256 227.963 396.312 227.824 396.349 227.694C396.423 227.351 396.497 227.007 396.581 226.664C396.748 225.903 396.887 225.124 397.026 224.353C397.314 222.841 397.574 221.309 397.954 219.825C397.954 219.713 397.806 219.676 397.778 219.825C397.453 221.328 396.98 222.822 396.534 224.298C396.312 225.031 396.08 225.755 395.885 226.488L395.69 227.249C394.001 224.465 392.293 221.746 390.447 219.092C390.567 218.726 390.629 218.344 390.632 217.959C390.688 217.44 390.753 216.929 390.809 216.41C390.948 215.25 391.078 214.08 391.254 212.92C391.549 210.646 391.961 208.387 392.488 206.155C392.488 206.044 392.34 206.007 392.312 206.155C391.755 208.382 391.143 210.61 390.716 212.865C390.512 213.969 390.317 215.083 390.168 216.196C390.094 216.762 390.029 217.319 389.973 217.876C389.973 218.043 389.927 218.219 389.908 218.386C389.342 217.588 388.776 216.781 388.182 216.001C386.373 213.626 384.47 211.306 382.614 208.995C382.549 208.902 382.401 208.995 382.475 209.097C385.711 213.237 388.683 217.576 391.375 222.089L392.906 224.585L392.405 224.52C391.737 224.437 391.068 224.4 390.41 224.335C389.073 224.214 387.746 224.093 386.41 223.991C383.747 223.778 381.074 223.611 378.41 223.332C378.392 223.339 378.376 223.35 378.364 223.366C378.353 223.382 378.347 223.401 378.347 223.421C378.347 223.44 378.353 223.459 378.364 223.475C378.376 223.491 378.392 223.503 378.41 223.509C381.102 223.815 383.784 224.251 386.466 224.632L390.428 225.161C391.433 225.366 392.456 225.471 393.481 225.476L396.627 230.58C396.392 230.562 396.157 230.562 395.922 230.58H392.108C390.391 230.58 388.674 230.58 386.957 230.58C386.846 230.58 386.865 230.756 386.957 230.756C388.702 230.756 390.428 230.868 392.173 230.961C392.999 230.961 393.815 231.053 394.641 231.109L395.875 231.193C396.233 231.272 396.604 231.272 396.961 231.193C397.889 232.64 398.752 234.079 399.634 235.536C400.515 236.993 401.286 238.199 402.13 239.517C402.918 240.93 403.814 242.28 404.812 243.554C404.896 243.526 405.035 243.47 404.998 243.359Z" fill="#263238"/>
<path d="M397.453 214.795C397.296 215.93 397.06 217.052 396.748 218.154C396.46 219.296 396.126 220.428 395.755 221.551C395.745 221.565 395.739 221.582 395.737 221.599C395.735 221.616 395.737 221.633 395.743 221.649C395.748 221.666 395.758 221.68 395.77 221.692C395.783 221.704 395.798 221.713 395.814 221.718C395.83 221.724 395.848 221.725 395.865 221.722C395.882 221.72 395.898 221.713 395.912 221.703C395.926 221.693 395.938 221.68 395.946 221.665C395.954 221.65 395.958 221.633 395.959 221.616C396.312 220.502 396.621 219.379 396.887 218.247C397.156 217.115 397.332 215.955 397.611 214.823C397.657 214.711 397.472 214.674 397.453 214.795Z" fill="#263238"/>
<path d="M385.825 221.69C385.584 221.485 385.278 221.374 384.962 221.374L383.468 221.17C382.54 221.04 381.612 220.938 380.684 220.827C378.754 220.604 376.824 220.419 374.893 220.177C374.875 220.183 374.859 220.195 374.847 220.211C374.836 220.227 374.83 220.246 374.83 220.266C374.83 220.285 374.836 220.304 374.847 220.32C374.859 220.336 374.875 220.348 374.893 220.354C376.749 220.576 378.522 220.846 380.341 221.087C381.222 221.207 382.113 221.328 383.004 221.43L384.294 221.579C384.793 221.583 385.288 221.667 385.76 221.829C385.825 221.876 385.89 221.792 385.825 221.69Z" fill="#263238"/>
<path d="M397.425 237.234C396.497 237.16 395.569 237.132 394.688 237.104L393.305 237.058H392.646C392.358 237.07 392.069 237.055 391.783 237.011C391.653 237.011 391.644 237.206 391.783 237.188C392.051 237.16 392.322 237.16 392.59 237.188H393.305L394.688 237.271C395.616 237.327 396.544 237.382 397.425 237.382C397.527 237.429 397.537 237.243 397.425 237.234Z" fill="#263238"/>
<path d="M403.003 233.281C403.114 232.77 403.207 232.251 403.299 231.731C403.494 230.71 403.68 229.689 403.866 228.669C403.859 228.65 403.848 228.634 403.832 228.622C403.816 228.611 403.797 228.605 403.777 228.605C403.758 228.605 403.739 228.611 403.723 228.622C403.707 228.634 403.695 228.65 403.689 228.669L403.021 231.647C402.9 232.139 402.798 232.64 402.687 233.132L402.548 233.828C402.475 234.062 402.446 234.308 402.464 234.552C402.464 234.636 402.603 234.71 402.659 234.617C402.858 234.198 402.974 233.744 403.003 233.281Z" fill="#263238"/>
<path d="M349.429 255.775L350.533 268.303L354.273 310.602H387.403L392.08 268.303L393.463 255.775H349.429Z" fill="#455A64"/>
<path d="M349.429 255.775L350.533 268.303H392.08L393.463 255.775H349.429Z" fill="#263238"/>
<path d="M346.153 262.522H396.748V252.36H346.153V262.522Z" fill="#455A64"/>
<path d="M130.755 260.285C128.806 262.67 127.099 325.023 129.419 332.669C131.739 340.316 146.392 354.459 146.949 356.473C147.347 358.389 147.347 360.366 146.949 362.282C146.726 363.21 142.114 367.024 140.573 368.88C139.785 369.808 138.448 376.935 139.645 377.492C140.843 378.049 149.928 377.381 152.637 374.81C155.347 372.239 162.196 361.605 162.845 359.962C163.495 358.319 161.658 346.654 161.184 344.307C160.711 341.959 176.264 308.653 176.32 296.877C176.376 285.1 134.829 255.311 130.755 260.285Z" fill="#F49D37"/>
<path d="M149.102 368.88C149.112 368.868 149.126 368.86 149.142 368.858C149.157 368.856 149.173 368.861 149.185 368.871C149.198 368.881 149.205 368.895 149.207 368.911C149.209 368.926 149.204 368.942 149.195 368.954C148.267 370.411 147.478 371.924 146.735 373.464C145.951 374.802 145.625 376.36 145.807 377.9C145.807 377.92 145.8 377.939 145.786 377.953C145.772 377.967 145.753 377.974 145.733 377.974C145.713 377.974 145.695 377.967 145.681 377.953C145.667 377.939 145.659 377.92 145.659 377.9C145.194 376.384 145.22 374.76 145.733 373.26C146.522 371.571 147.672 370.076 149.102 368.88Z" fill="#263238"/>
<path d="M144.081 368.778C144.091 368.771 144.102 368.768 144.114 368.768C144.126 368.769 144.137 368.773 144.146 368.78C144.156 368.787 144.163 368.797 144.166 368.809C144.169 368.82 144.169 368.832 144.165 368.843C143.363 370.284 142.653 371.775 142.04 373.307C141.492 374.587 140.453 376.564 141.455 377.854C141.622 378.077 141.455 378.141 141.269 377.956C139.989 376.842 140.434 374.838 140.917 373.437C141.603 371.663 142.686 370.07 144.081 368.778Z" fill="#263238"/>
<path d="M229.327 257.353C231.276 259.738 232.984 322.09 230.664 329.783C228.344 337.476 213.691 351.564 213.134 353.568C212.736 355.487 212.736 357.467 213.134 359.387C213.356 360.315 218.423 364.676 219.509 365.985C221.059 367.841 222.599 373.195 221.365 373.752C220.131 374.309 209.171 373.752 207.445 371.896C204.875 369.214 197.877 358.7 197.237 357.048C196.597 355.396 198.434 343.731 198.898 341.383C199.362 339.036 183.8 305.72 183.781 293.944C183.763 282.168 225.253 252.416 229.327 257.353Z" fill="#F49D37"/>
<g opacity="0.1">
<path opacity="0.1" d="M229.327 257.353C231.276 259.738 232.984 322.09 230.664 329.783C228.344 337.476 213.691 351.564 213.134 353.568C212.736 355.487 212.736 357.467 213.134 359.387C213.356 360.315 218.423 364.676 219.509 365.985C221.059 367.841 222.599 373.195 221.365 373.752C220.131 374.309 209.171 373.752 207.445 371.896C204.875 369.214 197.877 358.7 197.237 357.048C196.597 355.396 198.434 343.731 198.898 341.383C199.362 339.036 183.8 305.72 183.781 293.944C183.763 282.168 225.253 252.416 229.327 257.353Z" fill="black"/>
</g>
<path d="M210.712 365.465C210.665 365.465 210.591 365.465 210.628 365.548C211.612 366.95 212.549 368.388 213.412 369.882C214.298 371.156 214.745 372.684 214.683 374.235C214.683 374.254 214.691 374.273 214.705 374.287C214.719 374.301 214.738 374.309 214.758 374.309C214.777 374.309 214.796 374.301 214.81 374.287C214.824 374.273 214.832 374.254 214.832 374.235C215.195 372.685 215.055 371.06 214.433 369.595C213.514 367.959 212.243 366.549 210.712 365.465Z" fill="#263238"/>
<path d="M215.723 365.01C215.667 365.01 215.593 365.01 215.63 365.094C216.535 366.472 217.35 367.908 218.071 369.39C218.702 370.634 219.88 372.527 218.999 373.891C218.841 374.123 218.999 374.179 219.184 373.984C220.391 372.778 219.806 370.81 219.231 369.446C218.408 367.724 217.209 366.208 215.723 365.01Z" fill="#263238"/>
<path d="M223.379 359.507C223.379 359.507 253.641 379.301 257.409 380.424C261.176 381.547 312.68 404.413 316.652 404.803C318.258 404.961 334.572 406.167 335.574 405.666C336.576 405.165 331.213 397.787 327.436 396.024C323.659 394.261 312.764 393.24 311.335 392.312C309.906 391.384 278.586 359.683 276.804 356.918C275.022 354.153 270.308 328.54 270.308 328.54L223.379 359.507Z" fill="#F49D37"/>
<path d="M323.362 398.335C323.306 398.335 323.241 398.335 323.287 398.418C324.41 399.708 325.496 401.044 326.498 402.436C327.515 403.612 328.118 405.089 328.215 406.64C328.221 406.657 328.231 406.671 328.245 406.681C328.26 406.691 328.277 406.696 328.294 406.696C328.311 406.696 328.328 406.691 328.342 406.681C328.356 406.671 328.367 406.657 328.373 406.64C328.56 405.049 328.234 403.44 327.445 402.047C326.517 400.413 324.902 399.383 323.362 398.335Z" fill="#263238"/>
<path d="M328.289 397.36C328.243 397.314 328.178 397.36 328.215 397.444C329.26 398.719 330.221 400.062 331.092 401.462C331.853 402.631 333.226 404.395 332.465 405.842C332.335 406.093 332.465 406.13 332.66 405.916C333.727 404.589 332.939 402.687 332.224 401.397C331.235 399.771 329.889 398.391 328.289 397.36Z" fill="#263238"/>
<path opacity="0.1" d="M276.544 356.352L236.324 367.813C229.374 363.386 223.416 359.461 223.416 359.461L270.364 328.512C270.364 328.512 274.577 351.758 276.544 356.352Z" fill="black"/>
<path d="M242.254 306.435C234.376 293.443 230.821 239.303 217.857 227.676C210.433 220.985 164.785 186.296 149.12 190.639C144.007 192.059 128.38 247.581 131.061 265.028C134.068 284.516 147.042 316.068 153.027 323.492C159.013 330.916 194.861 327.074 200.355 330.099C205.849 333.124 242.254 306.435 242.254 306.435Z" fill="#F49D37"/>
<path d="M150.93 322.341C150.809 321.75 150.651 321.167 150.457 320.596C150.132 319.51 149.77 318.443 149.399 317.376C148.666 315.269 147.877 313.191 147.069 311.121C145.445 306.973 143.627 302.899 141.761 298.844C140.703 296.524 139.618 294.204 138.541 291.902C138.541 291.81 138.346 291.902 138.383 291.967C141.65 300.319 144.564 308.718 147.932 317.023C148.406 318.183 148.86 319.334 149.38 320.485C149.603 321.004 149.844 321.515 150.085 322.025C150.401 322.703 150.856 323.269 151.116 323.974C151.116 324.058 151.292 324.02 151.255 323.928C151.097 323.41 150.988 322.879 150.93 322.341Z" fill="#263238"/>
<path d="M133.808 281.351C133.428 278.788 133.372 276.188 133.641 273.611C133.855 270.985 134.142 268.359 134.514 265.751C134.94 262.813 135.432 259.88 135.989 256.954C135.989 256.908 135.924 256.889 135.915 256.954C134.606 262.197 133.623 267.515 132.806 272.86C132.329 275.432 132.179 278.054 132.361 280.664C132.632 283.148 133.28 285.577 134.282 287.866C135.416 290.435 136.741 292.917 138.244 295.29C138.291 295.355 138.411 295.29 138.383 295.225C136.648 290.687 134.625 286.177 133.808 281.351Z" fill="#263238"/>
<path d="M148.963 207.324C144.49 195.697 127.776 172.376 133.892 144.694C138.42 124.278 162.734 95.0365 161.871 80.6617C161.203 69.4237 134.356 76.3744 133.892 63.3267C133.354 48.1261 164.878 41.9827 176.255 60.8675C191.168 85.6544 154.558 130.848 149.965 154.428C145.102 179.42 157.129 197.534 156.628 198.713C156.127 199.891 148.963 207.324 148.963 207.324Z" fill="#F49D37"/>
<path d="M153.686 308.096C153.686 308.096 148.359 336.864 153.435 346.515C157.305 353.939 167.077 378.596 169.425 391.662C169.805 393.806 170.733 397.936 171.355 398.947C171.977 399.959 185.656 403.634 187.205 402.91C188.133 402.483 188.041 397.342 187.372 396.191C186.444 394.474 182.445 391.449 182.343 390.874C182.166 389.946 181.146 361.345 181.526 358.876C181.906 356.408 193.757 336.864 195.53 327.584C197.302 318.304 155.486 305.173 153.686 308.096Z" fill="#F49D37"/>
<path d="M178.556 393.871C178.548 393.859 178.535 393.85 178.52 393.848C178.505 393.845 178.49 393.849 178.478 393.857C178.465 393.866 178.457 393.879 178.454 393.894C178.452 393.909 178.455 393.924 178.464 393.936C179.336 395.412 180.153 396.924 180.886 398.474C181.671 399.815 181.997 401.376 181.814 402.919C181.814 402.939 181.822 402.958 181.835 402.972C181.849 402.985 181.868 402.993 181.888 402.993C181.908 402.993 181.926 402.985 181.94 402.972C181.954 402.958 181.962 402.939 181.962 402.919C182.448 401.411 182.448 399.788 181.962 398.279C181.171 396.573 180.007 395.067 178.556 393.871Z" fill="#263238"/>
<path d="M183.586 393.815C183.54 393.769 183.456 393.815 183.493 393.88C184.285 395.328 184.982 396.825 185.581 398.363C186.12 399.652 187.14 401.629 186.12 402.919C185.953 403.132 186.12 403.207 186.305 403.021C187.604 401.917 187.168 399.903 186.704 398.511C186.033 396.73 184.967 395.125 183.586 393.815Z" fill="#263238"/>
<path d="M159.904 360.444C159.495 359.34 159.143 358.217 158.744 357.104C157.946 354.876 157.073 352.677 156.201 350.478C155.329 348.278 154.493 346.255 153.649 344.139C152.75 342.064 152.126 339.88 151.793 337.643C151.592 335.362 151.576 333.069 151.747 330.786C151.858 328.447 152.006 326.099 152.192 323.761C152.554 319.121 153.12 314.481 153.649 309.841C154.289 304.607 154.846 299.363 155.746 294.157C155.752 294.125 155.745 294.092 155.727 294.065C155.709 294.038 155.682 294.018 155.651 294.01C155.619 294.002 155.586 294.006 155.557 294.021C155.528 294.036 155.507 294.062 155.496 294.092C154.364 298.732 153.352 303.372 152.452 308.012C151.647 312.62 151.087 317.266 150.772 321.932C150.58 324.308 150.423 326.687 150.299 329.069C150.126 331.431 150.082 333.801 150.169 336.168C150.429 340.808 152.248 345.067 154.085 349.271C155.152 351.703 156.182 354.162 157.324 356.556C157.899 357.753 158.521 358.922 159.078 360.129C159.635 361.335 160.321 362.57 160.878 363.841C160.878 363.915 161.045 363.841 161.017 363.776C160.628 362.69 160.312 361.558 159.904 360.444Z" fill="#263238"/>
<path d="M152.851 286.975C152.851 286.923 152.83 286.873 152.794 286.837C152.757 286.8 152.708 286.78 152.656 286.78C152.604 286.78 152.555 286.8 152.518 286.837C152.482 286.873 152.461 286.923 152.461 286.975C152.285 289.554 152.081 292.153 152.062 294.742C152.062 296.013 152.062 297.285 152.164 298.556C152.164 299.169 152.266 299.79 152.303 300.412C152.314 301.036 152.386 301.658 152.517 302.268C152.517 302.288 152.525 302.307 152.538 302.321C152.552 302.335 152.571 302.342 152.591 302.342C152.611 302.342 152.63 302.335 152.643 302.321C152.657 302.307 152.665 302.288 152.665 302.268C152.904 301.076 153.031 299.864 153.046 298.649C153.129 297.34 153.185 296.023 153.185 294.714C153.185 292.134 153.009 289.536 152.851 286.975Z" fill="#263238"/>
<path d="M277.472 319.232C280.256 319.325 279.532 273.25 268.702 261.13C267.143 259.395 242.626 290.919 242.282 291.986C241.939 293.053 271.672 319.018 277.472 319.232Z" fill="#F49D37"/>
<path opacity="0.1" d="M276.59 319.028C278.985 319.111 278.344 279.792 269.101 269.445C267.774 267.96 246.829 294.863 246.56 295.781C246.291 296.7 271.663 318.851 276.59 319.028Z" fill="black"/>
<path d="M268.099 316.17C268.21 314.923 268.389 313.684 268.637 312.458C268.875 311.203 269.185 309.964 269.565 308.746C270.26 306.337 271.301 304.043 272.656 301.934C273.978 299.812 275.741 297.998 277.825 296.617C278.346 296.279 278.885 295.969 279.439 295.689C279.997 295.406 280.57 295.155 281.156 294.937C282.335 294.477 283.552 294.123 284.794 293.879C282.232 294.086 279.754 294.887 277.556 296.218C276.444 296.872 275.426 297.674 274.53 298.603C273.619 299.518 272.801 300.522 272.09 301.6C270.728 303.78 269.707 306.155 269.064 308.644C268.41 311.098 268.085 313.629 268.099 316.17Z" fill="#263238"/>
<path d="M266.336 315.381C266.211 313.564 266.211 311.741 266.336 309.924C266.425 308.11 266.626 306.303 266.939 304.514C267.511 300.937 268.579 297.457 270.113 294.176C270.879 292.539 271.779 290.968 272.804 289.48C273.845 288.001 275.002 286.608 276.266 285.314C277.532 284.013 278.91 282.826 280.386 281.769C281.863 280.694 283.414 279.723 285.026 278.864C281.665 280.347 278.588 282.404 275.932 284.942C274.604 286.223 273.399 287.624 272.331 289.128C271.274 290.635 270.343 292.228 269.547 293.888C267.999 297.232 266.949 300.783 266.429 304.43C265.878 308.058 265.847 311.745 266.336 315.381Z" fill="#263238"/>
<path d="M182.25 327.352C179.466 327.705 175.912 281.769 185.563 268.684C186.946 266.828 214.331 295.911 214.749 296.941C215.166 297.971 187.985 326.656 182.25 327.352Z" fill="#F49D37"/>
<path opacity="0.1" d="M183.085 327.074C180.709 327.38 177.675 288.181 185.869 277.017C187.057 275.412 210.405 300.217 210.777 301.145C211.148 302.073 187.976 326.443 183.085 327.074Z" fill="black"/>
<path d="M214.869 296.654C213.013 293.87 203.835 283.987 201.404 281.611C198.972 279.235 196.253 276.841 193.618 274.521C192.238 273.284 190.849 272.068 189.451 270.874L187.345 269.12C186.797 268.553 186.172 268.066 185.489 267.672C183.818 266.93 180.422 275.653 178.705 285.573C177.644 292.221 177.315 298.964 177.721 305.683C177.879 309.455 178.288 313.213 178.946 316.931C179.566 320.608 180.45 324.237 181.591 327.788C181.596 327.802 181.606 327.815 181.618 327.823C181.631 327.832 181.645 327.837 181.661 327.837C181.676 327.837 181.691 327.832 181.703 327.823C181.715 327.815 181.725 327.802 181.73 327.788C181.081 324.587 180.45 321.385 180.069 318.156C179.689 314.926 179.42 311.762 179.271 308.56C178.936 302.128 179.16 295.679 179.939 289.285C181.554 276.934 185.331 269.12 185.452 269.222L187.475 271.078C188.761 272.285 190.064 273.482 191.381 274.669C193.915 276.952 196.439 279.254 199.019 281.481C201.756 283.829 212.234 294.055 214.609 296.886C214.721 297.006 214.99 296.839 214.869 296.654Z" fill="#263238"/>
<path d="M191.27 323.445C191.032 322.191 190.722 320.952 190.342 319.733C189.997 318.522 189.582 317.332 189.098 316.17C188.18 313.837 186.93 311.649 185.386 309.674C183.866 307.691 181.943 306.052 179.744 304.867C179.195 304.564 178.628 304.294 178.046 304.059C177.461 303.855 176.877 303.614 176.264 303.465C175.05 303.122 173.808 302.886 172.552 302.76C175.121 302.725 177.662 303.287 179.976 304.403C181.143 304.961 182.232 305.669 183.215 306.509C184.21 307.34 185.115 308.273 185.915 309.293C187.494 311.33 188.747 313.599 189.627 316.021C190.507 318.41 191.06 320.908 191.27 323.445Z" fill="#263238"/>
<path d="M192.959 322.489C192.927 320.668 192.768 318.851 192.486 317.051C192.23 315.254 191.861 313.475 191.381 311.724C190.467 308.214 189.065 304.85 187.215 301.73C186.297 300.172 185.254 298.692 184.097 297.303C182.921 295.931 181.639 294.653 180.264 293.48C178.881 292.303 177.396 291.25 175.828 290.334C174.264 289.406 172.64 288.584 170.965 287.875C174.451 289.039 177.707 290.8 180.589 293.081C182.026 294.232 183.356 295.512 184.561 296.904C185.76 298.306 186.84 299.806 187.79 301.387C189.651 304.568 191.031 308.008 191.883 311.595C192.758 315.156 193.12 318.825 192.959 322.489Z" fill="#263238"/>
<path d="M259.525 360.287C260.378 360.018 277.992 347.796 283.949 329.904C284.961 326.86 261.872 295.02 250.671 289.193C245.02 286.251 211.501 291.049 209.487 291.689C201.617 294.204 178.529 327.101 179.605 337.161C179.995 340.873 191.029 355.276 210.276 363.293C214.971 365.289 239.146 366.736 259.525 360.287Z" fill="#F49D37"/>
<path d="M186.175 319.798C183.687 322.637 181.636 325.83 180.088 329.273C179.35 331.009 178.802 332.82 178.454 334.674C178.099 336.509 177.903 338.372 177.87 340.242C177.875 340.256 177.885 340.268 177.897 340.277C177.909 340.286 177.924 340.29 177.939 340.29C177.955 340.29 177.969 340.286 177.982 340.277C177.994 340.268 178.004 340.256 178.009 340.242C178.445 338.432 178.937 336.65 179.484 334.878C180.032 333.106 180.7 331.435 181.34 329.728C182.603 326.256 184.276 322.947 186.324 319.872C186.398 319.826 186.25 319.714 186.175 319.798Z" fill="#263238"/>
<path d="M187.113 347.861C185.395 346.115 183.859 344.2 182.528 342.144C181.113 339.731 180.514 336.926 180.821 334.145C180.821 334.052 180.691 334.015 180.682 334.145C180.381 335.612 180.213 337.102 180.18 338.599C180.238 340.008 180.615 341.386 181.285 342.627C182.593 344.993 184.783 346.589 186.983 348.074C187.094 348.111 187.187 347.944 187.113 347.861Z" fill="#263238"/>
<path d="M257.622 293.99C256.165 292.617 254.754 291.206 253.177 289.954C252.483 289.362 251.708 288.871 250.875 288.497C250.022 288.153 240.37 286.873 210.777 290.613C208.747 291.001 206.905 292.056 205.543 293.61C203.919 295.215 202.462 296.988 200.903 298.686C200.828 298.76 200.903 298.853 201.005 298.788C202.462 297.48 203.919 296.162 205.394 294.872C206.87 293.582 208.447 292.246 210.285 291.995C225.532 289.87 246.523 288.357 252.045 290.269C252.996 290.755 253.868 291.381 254.634 292.125C255.562 292.821 256.49 293.471 257.418 294.185C257.566 294.287 257.743 294.111 257.622 293.99Z" fill="#263238"/>
<path d="M282.743 324.002C280.978 320.885 278.809 318.014 276.293 315.464C274.855 313.952 273.333 312.532 271.913 311.001C271.848 310.936 271.755 311.001 271.811 311.112C273.37 312.875 274.79 314.759 276.182 316.68C277.574 318.601 278.799 320.253 280.005 322.118C281.212 323.983 282.112 325.728 283.105 327.584C284.179 329.489 284.982 331.535 285.49 333.662C285.49 333.755 285.666 333.737 285.657 333.662C285.331 330.282 284.341 326.999 282.743 324.002Z" fill="#263238"/>
<path d="M282.873 332.781C276.117 349.095 260.332 360.045 259.525 360.287C239.109 366.783 214.981 365.298 210.276 363.331C201.668 359.758 193.834 354.552 187.205 348L187.113 347.879C187.113 347.879 195.01 345.235 199.325 346.098C203.64 346.961 209.821 353.039 218.971 352.835C228.121 352.631 228.548 347.007 230.627 343.36C231.555 341.652 234.227 338.432 240.538 340.084C240.538 340.084 241.93 324.763 243.526 324.141C245.53 323.371 248.407 338.989 248.806 339.36C249.205 339.731 250.885 337.579 253.131 339.36C255.376 341.142 257.353 347.415 263.84 347.415C271.691 347.415 272.377 336.567 277.101 334.182C278.902 333.305 280.871 332.827 282.873 332.781V332.781Z" fill="white"/>
<path d="M261.696 321.348C267.756 320.698 271.449 326.424 272.201 333.495C272.813 339.23 269.835 345.457 264.016 346.079C258.197 346.701 253.864 340.205 253.298 334.832C252.731 329.459 255.061 322.016 261.696 321.348Z" fill="#263238"/>
<path d="M261.223 322.888C266.921 322.285 270.391 327.667 271.097 334.312C271.672 339.694 268.879 345.559 263.403 346.135C257.928 346.71 253.864 340.622 253.344 335.565C252.824 330.507 255.033 323.547 261.223 322.888Z" fill="white"/>
<path d="M262.68 327.584C267.143 327.111 269.853 331.296 270.41 336.53C270.855 340.743 268.665 345.327 264.387 345.81C260.109 346.292 256.963 341.495 256.499 337.532C256.035 333.57 257.836 328.131 262.68 327.584Z" fill="#263238"/>
<path d="M259.376 325.728C261.399 325.515 262.633 327.426 262.884 329.793C263.088 331.704 262.095 333.783 260.146 333.996C258.197 334.21 256.759 332.029 256.564 330.238C256.369 328.447 257.177 325.96 259.376 325.728Z" fill="white"/>
<path d="M218.692 327.018C210.832 325.969 206.081 331.482 205.144 338.534C204.968 340.103 205.105 341.691 205.549 343.206C205.992 344.721 206.732 346.132 207.726 347.359C208.72 348.585 209.948 349.601 211.338 350.349C212.729 351.096 214.254 351.559 215.825 351.712C223.379 352.714 228.947 346.478 229.661 341.114C229.882 339.466 229.772 337.791 229.338 336.186C228.904 334.58 228.154 333.078 227.133 331.766C226.112 330.453 224.84 329.358 223.391 328.542C221.941 327.727 220.344 327.209 218.692 327.018Z" fill="#263238"/>
<path d="M219.259 328.596C211.835 327.612 207.399 332.79 206.517 339.425C206.354 340.898 206.485 342.388 206.903 343.81C207.321 345.232 208.018 346.556 208.952 347.706C209.886 348.856 211.04 349.809 212.346 350.51C213.651 351.21 215.083 351.644 216.558 351.786C223.657 352.714 228.9 346.868 229.55 341.829C229.758 340.282 229.655 338.709 229.248 337.203C228.841 335.696 228.138 334.285 227.18 333.053C226.222 331.821 225.028 330.793 223.668 330.027C222.308 329.262 220.809 328.775 219.259 328.596V328.596Z" fill="white"/>
<path d="M220.372 333.254C214.581 332.484 211.092 336.539 210.396 341.727C210.269 342.881 210.372 344.049 210.7 345.163C211.028 346.277 211.574 347.314 212.306 348.216C213.038 349.117 213.942 349.864 214.965 350.413C215.988 350.962 217.11 351.303 218.266 351.415C223.834 352.148 227.917 347.555 228.474 343.611C228.637 342.396 228.556 341.162 228.235 339.979C227.914 338.797 227.359 337.691 226.605 336.726C225.85 335.761 224.909 334.956 223.839 334.36C222.769 333.764 221.59 333.388 220.372 333.254Z" fill="#263238"/>
<path d="M215.296 331.24C212.67 330.888 211.083 332.734 210.777 335.082C210.718 335.606 210.763 336.136 210.911 336.642C211.059 337.147 211.306 337.619 211.637 338.028C211.969 338.437 212.379 338.777 212.843 339.026C213.307 339.275 213.816 339.43 214.34 339.481C215.42 339.599 216.503 339.299 217.367 338.64C218.23 337.982 218.808 337.017 218.98 335.945C219.054 335.393 219.017 334.832 218.871 334.295C218.724 333.758 218.472 333.255 218.129 332.817C217.786 332.379 217.358 332.013 216.872 331.742C216.385 331.472 215.849 331.301 215.296 331.24V331.24Z" fill="white"/>
<path d="M240.204 339.871C240.324 340.52 244.407 342.757 244.844 342.738C245.28 342.72 249.205 340.056 249.279 339.397C249.354 338.739 245.642 338.683 244.695 338.739C243.748 338.794 240.092 339.221 240.204 339.871Z" fill="#263238"/>
<path d="M252.49 343.935C251.887 344.863 251.275 345.856 250.634 346.719C250.31 347.151 249.939 347.546 249.53 347.898C249.373 348.03 249.184 348.12 248.982 348.158C248.793 348.128 248.615 348.051 248.463 347.935C248.087 347.614 247.772 347.227 247.535 346.794C247.253 346.331 247.002 345.851 246.783 345.355C246.341 344.344 245.963 343.305 245.651 342.246L245.085 340.307L244.519 342.246C244.144 343.541 243.66 344.802 243.071 346.014C242.786 346.609 242.444 347.174 242.05 347.703C241.719 348.203 241.248 348.594 240.695 348.826H240.51H240.315C240.168 348.824 240.022 348.808 239.879 348.78C239.556 348.717 239.244 348.611 238.951 348.464C238.364 348.153 237.818 347.77 237.327 347.323C236.314 346.391 235.4 345.359 234.598 344.242C235.221 345.496 236.011 346.661 236.946 347.703C237.429 348.245 237.985 348.717 238.598 349.104C239.263 349.566 240.083 349.749 240.881 349.615C241.643 349.381 242.311 348.913 242.793 348.278C243.257 347.702 243.661 347.081 243.999 346.422C244.658 345.159 245.196 343.835 245.604 342.469H244.472C244.811 343.583 245.236 344.669 245.744 345.717C246.017 346.249 246.327 346.76 246.672 347.248C247.019 347.782 247.475 348.237 248.008 348.585C248.327 348.783 248.699 348.881 249.075 348.863C249.432 348.792 249.756 348.61 250.003 348.343C250.426 347.922 250.788 347.444 251.08 346.924C251.635 345.97 252.107 344.97 252.49 343.935Z" fill="#263238"/>
<path d="M274.558 338.414C277.88 338.08 281.202 337.848 284.525 337.699C287.847 337.551 291.188 337.439 294.51 337.486C296.18 337.486 297.842 337.486 299.503 337.532C301.164 337.579 302.834 337.653 304.495 337.746C307.827 337.885 311.14 338.21 314.471 338.497C312.819 338.228 311.177 337.95 309.516 337.746C307.855 337.542 306.194 337.356 304.532 337.226C301.201 336.938 297.86 336.845 294.51 336.808C291.16 336.771 287.828 336.929 284.497 337.18C282.836 337.309 281.165 337.477 279.504 337.662C277.843 337.848 276.191 338.098 274.558 338.414Z" fill="#263238"/>
<path d="M275.959 340.316C277.463 340.316 278.966 340.381 280.469 340.446C281.973 340.511 283.476 340.557 284.97 340.641C287.968 340.789 290.965 340.966 293.953 341.244C295.457 341.346 296.951 341.504 298.445 341.643L302.918 342.154L305.154 342.423L307.381 342.738C308.876 342.914 310.351 343.202 311.845 343.397C308.922 342.692 305.971 342.079 302.983 341.634C299.995 341.188 297.016 340.845 294.009 340.576C291.002 340.307 288.005 340.168 284.989 340.121C281.973 340.075 278.966 340.103 275.959 340.316Z" fill="#263238"/>
<path d="M275.152 342.228C276.395 342.404 277.639 342.58 278.864 342.785C280.089 342.989 281.332 343.165 282.576 343.378C285.044 343.815 287.513 344.232 290 344.715C292.487 345.197 294.909 345.689 297.359 346.218C299.809 346.747 302.24 347.304 304.699 347.842C303.499 347.44 302.302 347.06 301.108 346.701C299.902 346.367 298.695 346.023 297.47 345.717C295.048 345.067 292.589 344.548 290.13 344.056C287.671 343.564 285.184 343.184 282.706 342.868C280.228 342.553 277.667 342.302 275.152 342.228Z" fill="#263238"/>
<path d="M200.355 349.225C198.295 349.076 196.216 349.049 194.147 349.021C192.077 348.993 190.008 349.021 187.929 349.141C183.79 349.299 179.661 349.643 175.54 350.069C171.42 350.496 167.309 351.146 163.244 351.925C161.212 352.306 159.189 352.761 157.166 353.225C156.155 353.457 155.162 353.726 154.159 353.995L151.162 354.802C155.217 353.958 159.254 353.085 163.337 352.436C165.379 352.083 167.42 351.777 169.462 351.508C171.504 351.239 173.555 350.951 175.615 350.747C179.716 350.236 183.837 349.912 187.957 349.643C192.077 349.373 196.216 349.234 200.355 349.225Z" fill="#263238"/>
<path d="M198.889 351.768C195.177 351.953 191.465 352.352 187.753 352.844C184.041 353.336 180.329 353.976 176.691 354.7C173.053 355.424 169.378 356.259 165.778 357.234C162.177 358.208 158.595 359.322 155.087 360.574C156.897 360.11 158.669 359.535 160.479 359.099L163.189 358.384L165.898 357.735C167.754 357.289 169.536 356.89 171.346 356.473C173.155 356.055 174.993 355.693 176.821 355.359C180.468 354.607 184.143 353.967 187.827 353.382C189.683 353.076 191.539 352.798 193.395 352.538C195.251 352.278 197.042 352 198.889 351.768Z" fill="#263238"/>
<path d="M200.151 354.004C197.07 354.477 194.036 355.155 191.01 355.86C187.985 356.565 184.988 357.475 182.009 358.375C179.03 359.275 176.088 360.305 173.183 361.419C171.717 361.957 170.279 362.542 168.831 363.126C167.383 363.711 165.973 364.342 164.553 364.982C167.485 363.962 170.409 362.885 173.35 361.901C176.292 360.918 179.243 359.925 182.213 359.015C185.182 358.106 188.152 357.215 191.14 356.361C192.634 355.925 194.128 355.526 195.632 355.127C197.135 354.728 198.638 354.375 200.151 354.004Z" fill="#263238"/>
<path d="M265.983 382.03C265.932 381.493 266.039 380.953 266.289 380.475C266.54 379.997 266.923 379.602 267.394 379.339C266.942 379.064 266.589 378.652 266.387 378.163C266.185 377.674 266.145 377.133 266.271 376.62C266.791 374.931 268.869 375.107 268.869 375.107C268.466 374.763 268.197 374.287 268.112 373.763C268.027 373.239 268.131 372.703 268.405 372.249C269.129 370.764 271.356 371.553 271.356 371.553C270.934 371.103 270.676 370.523 270.625 369.908C270.575 369.292 270.734 368.678 271.078 368.165C271.561 367.349 273.092 367.451 273.194 367.312C276.683 362.783 283.996 353.596 302.073 358.032C315.808 361.419 320.114 374.68 319.538 386.224C319.538 386.401 320.466 386.484 320.466 387.737C320.494 388.039 320.433 388.343 320.292 388.612C320.15 388.88 319.933 389.102 319.668 389.25C319.959 389.499 320.155 389.841 320.223 390.218C320.29 390.595 320.226 390.984 320.039 391.319C319.867 391.681 319.576 391.975 319.216 392.152C318.855 392.329 318.446 392.379 318.053 392.293C318.295 392.757 319.464 393.491 318.814 395.17C318.622 395.639 318.275 396.029 317.831 396.275C317.388 396.521 316.874 396.61 316.374 396.525C316.642 396.886 316.793 397.321 316.806 397.771C316.819 398.221 316.694 398.664 316.448 399.04C316.235 399.411 314.694 399.504 314.434 399.671C329.282 407.327 352.389 407.095 357.076 408.951C372.416 415.011 354.366 429.813 341.124 425.2C340.288 424.913 341.652 423.344 342.534 423.409C357.456 424.773 364.416 413.934 355.461 411.42C349.652 409.796 326.888 410.074 313.246 402.316C312.133 401.685 311.39 403.244 311.121 403.55C304.068 410.64 289.258 412.709 279.876 407.476C267.904 400.803 266.828 390.113 267.125 384.276C266.745 384.044 266.436 383.712 266.235 383.315C266.033 382.918 265.946 382.473 265.983 382.03Z" fill="#455A64"/>
<path d="M273.612 375.441C277.073 382.197 284.404 386.41 291.336 388.878C298.71 391.489 306.627 392.179 314.341 390.883C314.917 390.781 315.167 391.672 314.583 391.811C306.45 393.199 298.096 392.418 290.362 389.547C283.467 386.957 276.284 382.716 272.813 375.951C272.544 375.376 273.342 374.912 273.612 375.441Z" fill="#263238"/>
<path d="M271.245 383.44C276.24 388.991 282.473 393.286 289.438 395.977C296.404 398.668 303.905 399.68 311.335 398.929C311.929 398.864 311.919 399.782 311.335 399.857C303.783 400.607 296.16 399.57 289.083 396.829C282.006 394.089 275.673 389.722 270.596 384.081C270.196 383.654 270.846 383.004 271.245 383.44Z" fill="#263238"/>
<path d="M272.414 367.804L272.702 369.353C272.813 369.938 273.695 369.687 273.63 369.112C273.574 368.843 273.528 368.574 273.482 368.314C273.528 368.27 273.569 368.22 273.602 368.165C277.555 360.899 285.666 358.496 293.434 358.301C293.039 358.65 292.693 359.049 292.403 359.489C292.337 359.446 292.26 359.424 292.181 359.424C288.491 359.207 284.826 360.142 281.692 362.101C278.557 364.059 276.11 366.944 274.688 370.356C274.688 370.291 274.604 370.244 274.567 370.189C274.224 369.706 273.426 370.189 273.769 370.653C283.699 384.415 300.681 391.997 317.385 387.18C317.508 387.148 317.614 387.069 317.678 386.959C317.742 386.849 317.761 386.719 317.729 386.596C317.697 386.472 317.617 386.367 317.507 386.303C317.398 386.238 317.267 386.22 317.144 386.252C314.848 386.914 312.491 387.346 310.11 387.542C313.822 384.878 316.779 381.297 318.694 377.149C318.944 376.61 318.146 376.146 317.905 376.685C315.945 380.965 312.843 384.622 308.94 387.254C308.879 387.296 308.829 387.351 308.794 387.415C308.758 387.48 308.738 387.552 308.736 387.626C307.883 387.626 307.047 387.626 306.203 387.626C306.908 387.06 307.595 386.475 308.263 385.881C308.357 385.843 308.435 385.774 308.486 385.686C311.653 382.832 314.383 379.527 316.587 375.877C316.591 375.862 316.591 375.846 316.587 375.831C316.791 375.487 317.005 375.144 317.2 374.791C317.247 374.687 317.254 374.568 317.219 374.459C317.184 374.349 317.109 374.257 317.01 374.199C316.911 374.141 316.794 374.123 316.681 374.146C316.569 374.17 316.469 374.234 316.402 374.327L316.318 374.485C313.766 366.235 308.894 359.145 299.79 357.605C299.715 357.59 299.636 357.595 299.563 357.619C299.49 357.644 299.424 357.687 299.373 357.744C299.336 357.736 299.298 357.736 299.261 357.744C299.256 357.684 299.237 357.626 299.205 357.576C299.173 357.525 299.129 357.482 299.077 357.451C299.026 357.421 298.968 357.403 298.908 357.399C298.848 357.395 298.788 357.405 298.732 357.429C297.468 357.895 296.371 358.728 295.581 359.82C294.791 360.913 294.344 362.215 294.297 363.563C294.297 363.563 294.297 363.637 294.297 363.674C293.626 363.725 292.96 363.818 292.301 363.952C292.306 363.928 292.306 363.903 292.301 363.878C292.078 362.609 292.321 361.302 292.987 360.198C293.652 359.095 294.694 358.269 295.921 357.874C296.477 357.688 296.236 356.797 295.679 356.992C295.219 357.147 294.777 357.353 294.362 357.605C294.328 357.531 294.272 357.47 294.203 357.428C294.133 357.387 294.053 357.367 293.972 357.373C285.88 357.466 277.333 359.888 273.045 367.256C272.965 367.228 272.879 367.222 272.796 367.239C272.713 367.255 272.636 367.292 272.572 367.348C272.508 367.403 272.46 367.475 272.432 367.555C272.404 367.635 272.398 367.72 272.414 367.804ZM313.979 378.206C313.979 370.216 307.901 363.099 301.303 358.923C309.293 361.038 313.441 367.841 315.687 375.627C315.139 376.49 314.592 377.362 313.979 378.206ZM311.195 381.742C311.231 377.592 310.352 373.485 308.622 369.713C306.891 365.94 304.351 362.596 301.182 359.916C307.753 364.184 313.683 371.413 313.051 379.487C312.42 380.257 311.808 381.009 311.158 381.742H311.195ZM297.888 358.858L298.101 358.737C301.98 361.334 305.131 364.879 307.257 369.034C309.383 373.19 310.413 377.82 310.249 382.485C310.246 382.56 310.265 382.634 310.305 382.698C309.748 383.283 309.191 383.858 308.597 384.415C308.823 379.627 307.979 374.849 306.127 370.428C304.274 366.007 301.46 362.054 297.888 358.858ZM301.943 387.329C302.474 378.767 300.235 370.262 295.559 363.071C295.496 362.969 295.396 362.895 295.28 362.867C295.363 362.33 295.522 361.808 295.754 361.317C301.141 367.821 303.958 376.076 303.669 384.517C303.669 384.64 303.718 384.758 303.805 384.845C303.892 384.932 304.01 384.981 304.133 384.981C304.256 384.981 304.374 384.932 304.462 384.845C304.549 384.758 304.597 384.64 304.597 384.517C304.894 375.776 301.952 367.234 296.338 360.528L296.227 360.445C296.493 360.056 296.805 359.701 297.155 359.387C300.778 362.595 303.61 366.599 305.428 371.084C307.245 375.569 308 380.415 307.632 385.241C306.871 385.918 306.091 386.586 305.275 387.208C305.216 387.253 305.169 387.31 305.137 387.376C305.105 387.442 305.089 387.515 305.089 387.589H304.56C304.56 387.134 304.56 386.661 304.56 386.215C304.56 385.77 303.632 385.63 303.632 386.215C303.632 386.651 303.632 387.087 303.586 387.514C303.048 387.468 302.528 387.412 301.925 387.329H301.943ZM300.533 378.429C300.607 378.893 300.672 379.357 300.737 379.83C297.946 378.991 295.337 377.638 293.044 375.84C293.02 375.78 292.981 375.726 292.931 375.686C292.88 375.645 292.82 375.618 292.756 375.608C290.051 373.416 287.865 370.652 286.353 367.516C286.886 367.117 287.448 366.758 288.033 366.439C290.744 371.713 295.136 375.932 300.514 378.429H300.533ZM288.877 366.022C289.845 365.559 290.859 365.201 291.902 364.955C291.075 366.046 290.588 367.356 290.501 368.722C289.893 367.861 289.344 366.958 288.859 366.022H288.877ZM284.896 368.806C285.137 368.565 285.388 368.323 285.657 368.091C285.861 368.527 286.093 368.954 286.325 369.363C286.265 369.401 286.217 369.456 286.186 369.52C285.516 370.668 285.222 371.996 285.345 373.319C285.468 374.642 286.003 375.894 286.873 376.898C286.462 377.318 285.997 377.68 285.49 377.974C284.642 376.661 284.14 375.155 284.03 373.596C283.919 372.037 284.205 370.476 284.859 369.056C284.891 368.98 284.904 368.897 284.896 368.815V368.806ZM286.854 370.235C287.447 371.191 288.105 372.105 288.821 372.973C288.753 373.033 288.708 373.115 288.691 373.205C288.523 374.279 288.107 375.299 287.476 376.183C286.8 375.37 286.379 374.375 286.265 373.324C286.151 372.273 286.35 371.211 286.835 370.272L286.854 370.235ZM299.707 374.587C299.948 375.515 300.171 376.397 300.356 377.306C299.469 376.861 298.608 376.365 297.777 375.821C297.815 375.786 297.843 375.741 297.86 375.692C298.006 375.336 298.263 375.038 298.592 374.841C298.922 374.643 299.306 374.558 299.688 374.597L299.707 374.587ZM297.034 375.33C296.119 374.696 295.248 374.002 294.427 373.251V373.195C294.661 372.358 295.127 371.603 295.77 371.017C296.413 370.431 297.208 370.038 298.064 369.882C298.579 371.121 299.031 372.385 299.419 373.669C298.9 373.685 298.397 373.852 297.97 374.148C297.544 374.445 297.212 374.858 297.016 375.339L297.034 375.33ZM292.812 371.618C292.985 370.578 293.468 369.614 294.198 368.854C294.929 368.094 295.872 367.572 296.904 367.358C297.173 367.906 297.443 368.453 297.693 369.019C296.773 369.216 295.919 369.645 295.213 370.266C294.506 370.886 293.97 371.678 293.656 372.564C293.369 372.267 293.081 371.961 292.793 371.645L292.812 371.618ZM297.452 386.345C298.961 385.821 300.241 384.787 301.071 383.422C301.12 384.659 301.12 385.896 301.071 387.134C299.843 386.943 298.626 386.689 297.424 386.373L297.452 386.345ZM293.09 384.869C294.107 384.276 294.954 383.431 295.549 382.415C296.144 381.399 296.467 380.247 296.487 379.069C297.81 379.744 299.193 380.297 300.616 380.721C300.701 380.75 300.792 380.75 300.876 380.721C300.923 381.12 300.95 381.519 300.987 381.918C300.923 381.928 300.862 381.954 300.812 381.995C300.761 382.036 300.722 382.089 300.7 382.15C300.333 383.024 299.765 383.798 299.043 384.411C298.321 385.024 297.464 385.457 296.542 385.677C296.462 385.691 296.389 385.73 296.333 385.789C296.276 385.847 296.239 385.921 296.227 386.002C295.104 385.695 294.092 385.315 293.062 384.897L293.09 384.869ZM287.856 382.336C289.129 381.999 290.282 381.31 291.181 380.348C292.081 379.387 292.691 378.191 292.942 376.898C293.767 377.516 294.632 378.081 295.531 378.587C295.604 379.773 295.321 380.954 294.72 381.979C294.118 383.004 293.224 383.826 292.153 384.341C292.1 384.364 292.053 384.399 292.014 384.443C290.588 383.822 289.2 383.119 287.856 382.336ZM285.564 380.888C288.413 380.397 289.926 377.835 291.049 375.32C291.401 375.636 291.754 375.942 292.125 376.248C291.966 377.56 291.388 378.785 290.477 379.741C289.565 380.698 288.37 381.334 287.067 381.557C286.973 381.572 286.887 381.621 286.826 381.696C286.399 381.464 285.982 381.176 285.564 380.898V380.888ZM283.801 379.636C285.216 379.309 286.506 378.581 287.517 377.539C288.528 376.497 289.216 375.185 289.499 373.761C289.777 374.068 290.056 374.374 290.353 374.689C289.313 377.046 287.94 379.821 285.054 380.062C284.977 380.069 284.903 380.096 284.84 380.14C284.776 380.184 284.725 380.243 284.692 380.313C284.386 380.081 284.098 379.858 283.801 379.645V379.636ZM281.694 373.427C282.167 372.434 282.726 371.484 283.365 370.588C283.045 371.908 282.993 373.279 283.213 374.62C283.433 375.96 283.92 377.243 284.645 378.392C284.151 378.6 283.634 378.75 283.105 378.837C282.551 378.133 282.149 377.322 281.924 376.455C281.699 375.588 281.655 374.683 281.796 373.798C281.808 373.734 281.805 373.668 281.787 373.606C281.77 373.543 281.738 373.485 281.694 373.437V373.427ZM280.302 376.722C280.479 376.267 280.655 375.794 280.841 375.367C280.888 376.166 281.073 376.951 281.388 377.687C281.017 377.381 280.655 377.065 280.302 376.768V376.722ZM277.639 374.021C277.719 373.966 277.775 373.883 277.797 373.789C278.703 370.712 280.46 367.954 282.866 365.831C285.271 363.708 288.226 362.307 291.392 361.79C291.257 362.561 291.257 363.349 291.392 364.119C289.319 364.655 287.375 365.601 285.675 366.903C282.557 369.27 280.933 372.527 279.56 376.072C278.91 375.404 278.27 374.717 277.639 374.03V374.021ZM291.893 360.324C291.819 360.491 291.745 360.658 291.68 360.825H291.587C288.221 361.305 285.061 362.734 282.478 364.945C279.894 367.155 277.994 370.055 276.999 373.307C276.405 372.611 275.829 371.896 275.273 371.172C275.293 371.148 275.309 371.119 275.319 371.089C276.605 367.785 278.897 364.968 281.872 363.038C284.846 361.108 288.352 360.162 291.893 360.333V360.324ZM293.35 364.667C294.014 364.572 294.684 364.519 295.355 364.509C295.754 365.168 296.134 365.845 296.496 366.523C295.443 366.776 294.476 367.305 293.695 368.055C292.914 368.806 292.347 369.75 292.051 370.792C291.828 370.532 291.624 370.272 291.42 370.003C291.299 369.03 291.411 368.042 291.746 367.121C292.082 366.2 292.632 365.371 293.35 364.704V364.667Z" fill="#263238"/>
<path d="M269.575 397.277C269.621 397.861 270.503 397.861 270.503 397.277C270.258 394.507 270.792 391.724 272.043 389.24C272.349 389.574 272.665 389.909 272.971 390.224C272.055 391.774 271.466 393.495 271.241 395.281C271.016 397.067 271.159 398.88 271.663 400.608C271.695 400.725 271.772 400.825 271.877 400.885C271.982 400.945 272.107 400.961 272.224 400.929C272.341 400.897 272.44 400.819 272.5 400.714C272.56 400.609 272.576 400.484 272.544 400.367C272.084 398.794 271.945 397.145 272.135 395.518C272.324 393.89 272.839 392.317 273.649 390.892C274.187 391.412 274.734 391.922 275.3 392.405C274.101 394.307 273.498 396.524 273.569 398.772C273.64 401.019 274.382 403.194 275.699 405.016C276.043 405.499 276.832 405.016 276.498 404.552C275.28 402.896 274.583 400.914 274.495 398.86C274.408 396.805 274.933 394.772 276.006 393.017C276.525 393.453 277.045 393.862 277.583 394.27C277.505 394.283 277.432 394.318 277.373 394.37C277.314 394.423 277.271 394.491 277.249 394.567C276.623 396.442 276.437 398.436 276.706 400.395C276.974 402.353 277.691 404.224 278.799 405.861C278.857 405.941 278.939 406.002 279.032 406.034C279.126 406.066 279.228 406.069 279.323 406.042C279.418 406.014 279.503 405.958 279.565 405.881C279.628 405.804 279.665 405.709 279.671 405.61C283.706 405.246 287.523 403.623 290.585 400.97C291.383 401.212 292.181 401.444 292.997 401.638C291.524 403.194 289.744 404.425 287.769 405.256C285.795 406.087 283.669 406.498 281.527 406.464C281.404 406.464 281.286 406.513 281.199 406.6C281.112 406.687 281.063 406.805 281.063 406.928C281.063 407.051 281.112 407.169 281.199 407.256C281.286 407.343 281.404 407.392 281.527 407.392C283.831 407.428 286.116 406.979 288.234 406.074C290.353 405.169 292.257 403.829 293.823 402.14C293.887 402.067 293.926 401.976 293.935 401.88C294.482 402 295.03 402.102 295.586 402.205C294.267 405.241 292.044 407.797 289.22 409.526C289.116 409.588 289.04 409.689 289.009 409.806C288.979 409.923 288.996 410.048 289.058 410.153C289.12 410.257 289.22 410.333 289.338 410.364C289.455 410.394 289.58 410.377 289.684 410.315C292.673 408.501 295.024 405.803 296.412 402.594C296.435 402.512 296.435 402.426 296.412 402.344C297.006 402.437 297.61 402.511 298.213 402.585C297.442 405.284 296.032 407.757 294.102 409.796C293.693 410.222 294.343 410.872 294.751 410.445C296.827 408.257 298.334 405.593 299.141 402.687L299.994 402.752C299.556 405.326 298.276 407.682 296.357 409.452C295.921 409.861 296.57 410.51 297.006 410.102C299.097 408.183 300.474 405.611 300.913 402.808L302.472 402.863C301.972 405.181 300.875 407.328 299.289 409.09C298.89 409.526 299.54 410.176 299.939 409.74C301.689 407.794 302.89 405.418 303.419 402.854C304.229 402.854 305.037 402.826 305.841 402.771C305.7 404.65 304.827 406.4 303.41 407.643C302.973 408.042 303.623 408.682 304.059 408.292C305.657 406.863 306.63 404.863 306.769 402.724L307.753 402.631C308.337 402.566 308.347 401.648 307.753 401.703C301.147 402.455 294.457 401.606 288.249 399.228C282.04 396.851 276.495 393.014 272.08 388.043C271.718 387.635 271.152 388.155 271.375 388.581C271.337 388.612 271.305 388.65 271.282 388.693C269.915 391.336 269.323 394.312 269.575 397.277ZM284.785 403.439C284.018 401.831 283.75 400.031 284.014 398.27C285.812 399.179 287.673 399.957 289.582 400.599C288.144 401.787 286.532 402.747 284.803 403.448L284.785 403.439ZM281.861 404.367C280.885 401.923 280.621 399.252 281.1 396.664C281.778 397.082 282.474 397.481 283.17 397.861V397.936C282.841 399.92 283.116 401.956 283.959 403.782C283.271 404.01 282.57 404.199 281.861 404.348V404.367ZM278.149 394.827C278.154 394.787 278.154 394.746 278.149 394.706C278.855 395.217 279.569 395.718 280.312 396.182C280.261 396.241 280.226 396.311 280.21 396.386C279.681 399.119 279.932 401.946 280.933 404.543C280.497 404.617 280.061 404.673 279.616 404.719C279.548 404.725 279.482 404.746 279.423 404.779C279.363 404.813 279.312 404.859 279.272 404.914C278.355 403.415 277.778 401.733 277.583 399.987C277.387 398.241 277.577 396.473 278.14 394.808L278.149 394.827Z" fill="#263238"/>
<path d="M290.956 393.658C298.807 397.323 307.521 396.637 315.91 395.885C316.504 395.829 316.494 396.748 315.91 396.813C307.326 397.583 298.519 398.205 290.492 394.456C289.954 394.205 290.464 393.407 290.956 393.658Z" fill="#263238"/>
<path d="M316.095 388.832L319.575 388.442C320.169 388.377 320.16 389.296 319.575 389.37L316.095 389.76C315.52 389.853 315.52 388.934 316.095 388.832Z" fill="#263238"/>
<path d="M268.962 375.098C272.138 382.294 278.008 387.958 285.314 390.874C285.861 391.087 285.62 391.978 285.072 391.755C277.541 388.778 271.479 382.963 268.192 375.562C267.932 375.033 268.721 374.559 268.962 375.098Z" fill="#263238"/>
<path d="M271.904 370.838C277.382 377.976 284.526 383.664 292.71 387.403C293.248 387.653 292.784 388.442 292.246 388.201C283.927 384.38 276.671 378.578 271.115 371.302C270.716 370.829 271.514 370.374 271.904 370.838Z" fill="#263238"/>
<path d="M294.222 387.978C294.345 387.978 294.464 388.027 294.551 388.114C294.638 388.201 294.686 388.319 294.686 388.442C294.686 388.565 294.638 388.683 294.551 388.77C294.464 388.857 294.345 388.906 294.222 388.906C294.099 388.906 293.981 388.857 293.894 388.77C293.807 388.683 293.758 388.565 293.758 388.442C293.758 388.319 293.807 388.201 293.894 388.114C293.981 388.027 294.099 387.978 294.222 387.978Z" fill="#263238"/>
<path d="M293.341 391.616C301.255 394.221 309.742 394.542 317.831 392.544C318.406 392.405 318.657 393.286 318.081 393.426C309.832 395.47 301.174 395.149 293.1 392.498C292.543 392.303 292.784 391.412 293.341 391.616Z" fill="#263238"/>
<path d="M288.71 392.758C288.833 392.758 288.951 392.806 289.038 392.893C289.125 392.98 289.174 393.098 289.174 393.222C289.174 393.345 289.125 393.463 289.038 393.55C288.951 393.637 288.833 393.686 288.71 393.686C288.587 393.686 288.469 393.637 288.382 393.55C288.295 393.463 288.246 393.345 288.246 393.222C288.246 393.098 288.295 392.98 288.382 392.893C288.469 392.806 288.587 392.758 288.71 392.758Z" fill="#263238"/>
<path d="M267.895 384.823C267.734 384.524 267.594 384.214 267.477 383.895C267.273 383.338 268.155 383.097 268.359 383.654C268.818 384.93 269.665 386.03 270.781 386.8C271.264 387.134 270.781 387.932 270.317 387.598L270.029 387.375C269.187 389.254 268.867 391.325 269.101 393.37C269.166 393.955 268.248 393.955 268.173 393.37C267.943 391.099 268.348 388.808 269.343 386.753C269.044 386.468 268.771 386.158 268.526 385.825C268.274 386.56 268.118 387.324 268.062 388.099C268.016 388.693 267.134 388.693 267.134 388.099C267.205 386.972 267.462 385.865 267.895 384.823Z" fill="#263238"/>
<path d="M309.451 401.444L311.817 401.091C311.891 401.082 311.967 401.089 312.038 401.113C312.108 401.137 312.173 401.177 312.226 401.23C312.388 400.796 312.645 400.403 312.979 400.082C313.313 399.761 313.716 399.519 314.156 399.374C314.713 399.188 314.954 400.079 314.397 400.302C314.013 400.431 313.675 400.668 313.421 400.984C313.168 401.299 313.011 401.681 312.968 402.084C312.912 402.668 311.994 402.668 312.04 402.084L309.683 402.427C309.117 402.409 308.866 401.527 309.451 401.444Z" fill="#263238"/>
</svg>
