<svg width="464" height="464" viewBox="0 0 464 464" fill="none" xmlns="http://www.w3.org/2000/svg">
<g clip-path="url(#clip0_27_177)">
<circle cx="207" cy="141" r="493" fill="#FDFDFD"/>
<path d="M-175.198 9.15325C-183.256 19.0147 -190.316 276.831 -180.724 308.449C-171.131 340.067 -110.543 398.545 -108.24 406.871C-106.595 414.794 -106.595 422.969 -108.24 430.892C-109.161 434.729 -128.232 450.499 -134.601 458.174C-137.863 462.011 -143.388 491.48 -138.438 493.782C-133.489 496.084 -95.9231 493.322 -84.7187 482.693C-73.5143 472.064 -45.1963 428.091 -42.5103 421.299C-39.8243 414.507 -47.4218 366.274 -49.3788 356.566C-51.3357 346.859 12.9745 209.144 13.2047 160.451C13.435 111.758 -158.353 -11.4137 -175.198 9.15325Z" fill="#F49D37"/>
<path d="M232.381 -2.97223C240.439 6.88918 247.499 264.706 237.907 296.515C228.314 328.325 167.726 386.573 165.423 394.861C163.778 402.796 163.778 410.984 165.423 418.92C166.344 422.757 187.295 440.791 191.784 446.202C198.192 453.876 204.562 476.016 199.459 478.318C194.355 480.621 149.039 478.318 141.902 470.644C131.273 459.555 102.341 416.08 99.6933 409.25C97.0457 402.42 104.643 354.187 106.562 344.479C108.48 334.771 44.1317 197.019 44.055 148.326C43.9782 99.6325 215.536 -23.3857 232.381 -2.97223Z" fill="#F49D37"/>
<g opacity="0.1">
<path opacity="0.1" d="M232.381 -2.97223C240.439 6.88918 247.499 264.706 237.907 296.515C228.314 328.325 167.726 386.573 165.423 394.861C163.778 402.796 163.778 410.984 165.423 418.92C166.344 422.757 187.295 440.791 191.784 446.202C198.192 453.876 204.562 476.016 199.459 478.318C194.355 480.621 149.039 478.318 141.902 470.644C131.273 459.555 102.341 416.08 99.6933 409.25C97.0457 402.42 104.643 354.187 106.562 344.479C108.48 334.771 44.1317 197.019 44.055 148.326C43.9782 99.6325 215.536 -23.3857 232.381 -2.97223Z" fill="black"/>
</g>
<path d="M155.408 444.053C155.217 444.053 154.91 444.053 155.063 444.398C159.13 450.192 163.006 456.14 166.574 462.318C170.239 467.584 172.085 473.903 171.831 480.314C171.831 480.395 171.864 480.473 171.921 480.531C171.979 480.588 172.057 480.621 172.138 480.621C172.22 480.621 172.298 480.588 172.355 480.531C172.413 480.473 172.445 480.395 172.445 480.314C173.946 473.906 173.368 467.186 170.795 461.128C166.996 454.366 161.74 448.533 155.408 444.053Z" fill="#263238"/>
<path d="M176.13 442.172C175.899 442.172 175.592 442.172 175.746 442.518C179.486 448.218 182.856 454.152 185.838 460.283C188.447 465.425 193.32 473.253 189.675 478.894C189.022 479.853 189.675 480.083 190.442 479.277C195.43 474.289 193.013 466.154 190.634 460.514C187.232 453.392 182.275 447.124 176.13 442.172V442.172Z" fill="#263238"/>
<path d="M207.785 419.418C207.785 419.418 332.914 501.264 348.493 505.907C364.071 510.55 577.032 605.097 593.455 606.708C600.093 607.361 667.55 612.349 671.694 610.277C675.838 608.205 653.659 577.7 638.042 570.409C622.425 563.119 577.377 558.898 571.468 555.061C565.559 551.224 436.056 420.147 428.689 408.713C421.321 397.278 401.829 291.373 401.829 291.373L207.785 419.418Z" fill="#F49D37"/>
<path opacity="0.1" d="M427.615 406.372L261.314 453.761C232.574 435.458 207.939 419.227 207.939 419.227L402.059 291.258C402.059 291.258 419.48 387.378 427.615 406.372Z" fill="black"/>
<path d="M285.833 199.973C253.255 146.253 238.559 -77.6045 184.955 -125.684C154.258 -153.349 -34.4906 -296.781 -99.2613 -278.823C-120.404 -272.952 -185.021 -43.3773 -173.932 28.7606C-161.499 109.34 -107.856 239.802 -83.107 270.499C-58.3576 301.196 89.8706 285.311 112.586 297.82C135.302 310.329 285.833 199.973 285.833 199.973Z" fill="#F49D37"/>
<path d="M-80.3828 206.841C-80.3828 206.841 -102.408 325.792 -81.4188 365.698C-65.418 396.395 -25.0131 498.348 -15.3051 552.375C-13.7319 561.238 -9.89484 578.314 -7.32396 582.496C-4.75309 586.678 51.8062 601.874 58.2141 598.881C62.0513 597.115 61.6676 575.858 58.9049 571.1C55.0677 564.001 38.5297 551.492 38.1077 549.113C37.3786 545.276 33.1577 427.016 34.731 416.809C36.3042 406.602 85.3043 325.792 92.6332 287.421C99.9621 249.05 -72.9388 194.755 -80.3828 206.841Z" fill="#F49D37"/>
<path d="M431.452 252.887C442.963 253.271 439.97 62.7574 395.191 12.6445C388.744 5.46912 287.367 135.816 285.948 140.229C284.528 144.642 407.47 252.004 431.452 252.887Z" fill="#F49D37"/>
<path opacity="0.1" d="M427.806 252.043C437.706 252.388 435.059 89.8094 396.841 47.0254C391.354 40.886 304.75 152.124 303.637 155.923C302.524 159.722 407.431 251.314 427.806 252.043Z" fill="black"/>
<path d="M392.696 240.225C393.153 235.071 393.896 229.947 394.921 224.876C395.904 219.691 397.185 214.566 398.758 209.528C401.629 199.569 405.933 190.082 411.536 181.363C417.002 172.587 424.291 165.089 432.909 159.376C435.065 157.981 437.294 156.7 439.585 155.539C441.891 154.37 444.261 153.333 446.684 152.431C451.558 150.528 456.592 149.064 461.726 148.057C451.134 148.915 440.887 152.225 431.796 157.727C427.198 160.431 422.99 163.749 419.287 167.588C415.518 171.372 412.137 175.524 409.195 179.982C403.564 188.995 399.346 198.816 396.686 209.106C393.979 219.255 392.637 229.72 392.696 240.225V240.225Z" fill="#263238"/>
<path d="M385.405 236.963C384.887 229.451 384.887 221.913 385.405 214.401C385.772 206.9 386.605 199.429 387.899 192.031C390.263 177.241 394.68 162.853 401.022 149.285C404.188 142.517 407.91 136.022 412.15 129.869C416.452 123.752 421.238 117.991 426.462 112.64C431.697 107.261 437.398 102.356 443.499 97.9826C449.608 93.5389 456.019 89.5258 462.685 85.9724C448.788 92.1058 436.063 100.61 425.081 111.106C419.593 116.4 414.609 122.194 410.193 128.411C405.822 134.645 401.972 141.229 398.682 148.095C392.282 161.919 387.938 176.604 385.789 191.685C383.513 206.683 383.384 221.929 385.405 236.963V236.963Z" fill="#263238"/>
<path d="M37.7234 286.462C26.212 287.92 11.5159 97.9825 51.4219 43.879C57.1393 36.2048 170.373 156.46 172.1 160.72C173.826 164.979 61.4368 283.584 37.7234 286.462Z" fill="#F49D37"/>
<path opacity="0.1" d="M41.1765 285.311C31.3534 286.577 18.806 124.497 52.6878 78.3366C57.5993 71.6984 154.141 174.265 155.676 178.102C157.211 181.939 61.3981 282.702 41.1765 285.311Z" fill="black"/>
<path d="M172.599 159.53C164.924 148.018 126.975 107.153 116.922 97.3298C106.869 87.5068 95.626 77.6071 84.7286 68.0142C79.0241 62.8981 73.2812 57.8715 67.4999 52.9344L58.7897 45.6821C56.5246 43.3372 53.9412 41.3222 51.1154 39.6962C44.2086 36.6265 30.1647 72.6956 23.066 113.714C18.681 141.2 17.3171 169.083 18.9986 196.865C19.6488 212.462 21.3409 227.999 24.0637 243.371C26.6283 258.578 30.2829 273.582 34.9994 288.265C35.0212 288.324 35.0605 288.375 35.112 288.41C35.1634 288.446 35.2246 288.465 35.2873 288.465C35.3499 288.465 35.4111 288.446 35.4625 288.41C35.514 288.375 35.5532 288.324 35.575 288.265C32.8891 275.027 30.2798 261.789 28.7066 248.436C27.1333 235.083 26.0206 221.998 25.4066 208.76C24.0222 182.164 24.9466 155.499 28.1694 129.063C34.846 77.9908 50.4631 45.6821 50.9619 46.1042L59.3269 53.7784C64.6477 58.7667 70.0324 63.7167 75.4811 68.6282C85.9565 78.0675 96.3935 87.5836 107.061 96.7927C118.38 106.501 161.701 148.786 171.524 160.489C171.985 160.988 173.098 160.297 172.599 159.53Z" fill="#263238"/>
<path d="M75.0208 270.308C74.036 265.122 72.7549 259.998 71.1837 254.959C69.7576 249.952 68.0408 245.032 66.0419 240.225C62.243 230.58 57.0736 221.534 50.6934 213.365C44.408 205.166 36.4568 198.392 27.3637 193.488C25.0915 192.237 22.7467 191.122 20.3417 190.15C17.9244 189.306 15.507 188.308 12.9745 187.694C7.95303 186.277 2.81732 185.301 -2.37402 184.778C8.24637 184.633 18.7552 186.958 28.323 191.57C33.1471 193.878 37.6491 196.806 41.7145 200.28C45.8295 203.715 49.5721 207.574 52.8806 211.791C59.4086 220.212 64.5867 229.598 68.2291 239.611C71.8669 249.49 74.1516 259.816 75.0208 270.308V270.308Z" fill="#263238"/>
<path d="M82.0038 266.355C81.8698 258.824 81.2159 251.311 80.0469 243.87C78.9907 236.439 77.4656 229.083 75.4807 221.845C71.7006 207.331 65.9011 193.42 58.2521 180.519C54.4576 174.078 50.1458 167.957 45.3593 162.216C40.497 156.541 35.1984 151.255 29.512 146.407C23.7919 141.541 17.6544 137.188 11.1705 133.399C4.70446 129.561 -2.01297 126.164 -8.93604 123.23C5.47596 128.043 18.9405 135.327 30.855 144.757C36.7979 149.517 42.2949 154.808 47.2779 160.566C52.2352 166.363 56.7017 172.562 60.6311 179.099C68.3274 192.254 74.0301 206.479 77.5528 221.307C81.172 236.035 82.6708 251.204 82.0038 266.355V266.355Z" fill="#263238"/>
<path d="M357.241 422.642C360.771 421.529 433.6 370.994 458.234 297.014C462.417 284.428 366.949 152.777 320.635 128.68C297.267 116.516 158.67 136.354 150.343 139.001C117.804 149.4 22.3367 285.426 26.7878 327.021C28.3994 342.369 74.0228 401.921 153.605 435.074C173.021 443.324 272.978 449.31 357.241 422.642Z" fill="#F49D37"/>
<path d="M53.9546 255.228C43.6671 266.966 35.1837 280.169 28.783 294.405C25.7311 301.583 23.4668 309.071 22.0297 316.737C20.5599 324.327 19.7511 332.03 19.6123 339.76C19.6341 339.818 19.6734 339.869 19.7248 339.905C19.7763 339.941 19.8374 339.96 19.9001 339.96C19.9627 339.96 20.0239 339.941 20.0754 339.905C20.1268 339.869 20.1661 339.818 20.1879 339.76C21.9914 332.277 24.025 324.91 26.2889 317.581C28.5528 310.252 31.3156 303.345 33.9632 296.285C39.1849 281.93 46.1023 268.249 54.5685 255.535C54.8755 255.343 54.2615 254.882 53.9546 255.228Z" fill="#263238"/>
<path d="M57.8303 371.263C50.7285 364.045 44.3775 356.126 38.8749 347.626C33.0216 337.648 30.5454 326.048 31.8146 314.55C31.8146 314.166 31.2774 314.013 31.239 314.55C29.996 320.615 29.3025 326.779 29.167 332.968C29.404 338.794 30.9656 344.489 33.7332 349.621C39.1435 359.406 48.1991 366.006 57.2931 372.145C57.7536 372.299 58.1373 371.608 57.8303 371.263Z" fill="#263238"/>
<path d="M349.375 148.517C343.351 142.838 337.518 137.006 330.995 131.826C328.124 129.377 324.92 127.349 321.479 125.801C317.949 124.382 278.043 119.086 155.677 134.55C147.284 136.156 139.668 140.518 134.036 146.944C127.321 153.582 121.296 160.911 114.85 167.933C114.543 168.24 114.85 168.624 115.272 168.355C121.296 162.945 127.321 157.496 133.422 152.162C139.523 146.829 146.046 141.303 153.643 140.267C216.687 131.48 303.483 125.226 326.314 133.13C330.246 135.139 333.854 137.726 337.02 140.804C340.857 143.682 344.694 146.368 348.531 149.323C349.145 149.745 349.874 149.016 349.375 148.517Z" fill="#263238"/>
<path d="M453.246 272.61C445.948 259.721 436.981 247.851 426.578 237.308C420.631 231.054 414.338 225.183 408.467 218.852C408.199 218.583 407.815 218.852 408.045 219.312C414.491 226.603 420.362 234.392 426.118 242.335C431.873 250.278 436.939 257.108 441.927 264.82C446.915 272.533 450.637 279.747 454.743 287.421C459.185 295.298 462.504 303.758 464.604 312.554C464.604 312.938 465.333 312.861 465.295 312.554C463.947 298.576 459.853 285.002 453.246 272.61Z" fill="#263238"/>
<path d="M453.783 308.909C425.849 376.366 360.579 421.644 357.241 422.642C272.824 449.502 173.059 443.362 153.605 435.227C118.014 420.454 85.6202 398.928 58.2138 371.838L57.8301 371.339C57.8301 371.339 90.484 360.404 108.327 363.972C126.169 367.541 151.725 392.674 189.559 391.83C227.393 390.985 229.158 367.732 237.753 352.653C241.59 345.592 252.641 332.277 278.733 339.107C278.733 339.107 284.489 275.757 291.089 273.186C299.377 270.001 311.272 334.58 312.922 336.115C314.572 337.649 321.517 328.747 330.803 336.115C340.089 343.482 348.262 369.421 375.084 369.421C407.546 369.421 410.385 324.565 429.916 314.703C437.362 311.077 445.503 309.101 453.783 308.909V308.909Z" fill="white"/>
<path d="M366.22 261.636C391.277 258.95 406.548 282.625 409.656 311.864C412.189 335.577 399.872 361.324 375.813 363.895C351.754 366.466 333.835 339.606 331.494 317.389C329.154 295.172 338.785 264.398 366.22 261.636Z" fill="#263238"/>
<path d="M364.263 268.005C387.823 265.511 402.174 287.766 405.09 315.24C407.469 337.495 395.919 361.746 373.28 364.125C350.641 366.504 333.834 341.333 331.686 320.42C329.537 299.508 338.669 270.729 364.263 268.005Z" fill="white"/>
<path d="M370.288 287.422C388.744 285.465 399.949 302.77 402.251 324.411C404.093 341.832 395.037 360.787 377.348 362.783C359.659 364.778 346.651 344.94 344.732 328.555C342.814 312.171 350.258 289.685 370.288 287.422Z" fill="#263238"/>
<path d="M356.628 279.747C364.993 278.864 370.096 286.769 371.132 296.554C371.976 304.458 367.871 313.053 359.813 313.936C351.755 314.818 345.807 305.801 345.001 298.395C344.196 290.99 347.534 280.706 356.628 279.747Z" fill="white"/>
<path d="M188.408 285.081C155.908 280.745 136.262 303.537 132.386 332.699C131.659 339.185 132.228 345.751 134.061 352.015C135.895 358.279 138.955 364.116 143.065 369.186C147.175 374.257 152.252 378.459 158.001 381.549C163.749 384.64 170.055 386.556 176.551 387.187C207.786 391.331 230.808 365.545 233.763 343.367C234.675 336.552 234.22 329.624 232.425 322.987C230.631 316.351 227.532 310.138 223.309 304.712C219.087 299.286 213.826 294.755 207.834 291.385C201.842 288.014 195.238 285.871 188.408 285.081V285.081Z" fill="#263238"/>
<path d="M190.749 291.604C160.052 287.536 141.71 308.948 138.065 336.383C137.391 342.473 137.934 348.635 139.662 354.513C141.391 360.391 144.27 365.867 148.133 370.623C151.996 375.378 156.765 379.318 162.164 382.215C167.563 385.111 173.484 386.905 179.583 387.493C208.937 391.331 230.616 367.157 233.302 346.321C234.161 339.925 233.736 333.423 232.054 327.193C230.371 320.963 227.464 315.131 223.503 310.037C219.541 304.943 214.604 300.689 208.981 297.524C203.357 294.359 197.159 292.347 190.749 291.604V291.604Z" fill="white"/>
<path d="M195.353 310.866C171.41 307.682 156.982 324.45 154.104 345.899C153.579 350.672 154.006 355.501 155.362 360.107C156.718 364.712 158.974 369.003 162.001 372.73C165.028 376.456 168.765 379.545 172.995 381.816C177.226 384.087 181.864 385.495 186.643 385.959C209.666 388.99 226.549 369.997 228.851 353.689C229.527 348.668 229.191 343.563 227.863 338.674C226.536 333.785 224.245 329.211 221.123 325.221C218.002 321.231 214.114 317.906 209.689 315.44C205.263 312.975 200.389 311.42 195.353 310.866V310.866Z" fill="#263238"/>
<path d="M174.363 302.539C163.504 301.081 156.943 308.717 155.677 318.425C155.432 320.589 155.621 322.781 156.232 324.872C156.843 326.963 157.864 328.912 159.235 330.604C160.606 332.297 162.301 333.7 164.219 334.732C166.138 335.763 168.243 336.403 170.411 336.613C174.874 337.103 179.355 335.858 182.926 333.137C186.497 330.416 188.885 326.426 189.597 321.993C189.902 319.712 189.748 317.392 189.144 315.17C188.539 312.949 187.497 310.871 186.077 309.058C184.658 307.245 182.89 305.735 180.879 304.615C178.867 303.496 176.652 302.79 174.363 302.539V302.539Z" fill="white"/>
<path d="M277.352 338.225C277.851 340.911 294.734 350.158 296.538 350.082C298.341 350.005 314.572 338.992 314.879 336.268C315.186 333.544 299.838 333.313 295.924 333.544C292.01 333.774 276.892 335.539 277.352 338.225Z" fill="#263238"/>
<path d="M328.156 355.032C325.662 358.869 323.13 362.974 320.482 366.543C319.14 368.327 317.609 369.961 315.916 371.416C315.267 371.964 314.487 372.334 313.652 372.491C312.87 372.367 312.132 372.051 311.503 371.57C309.949 370.242 308.649 368.643 307.666 366.85C306.501 364.937 305.463 362.951 304.558 360.902C302.731 356.719 301.168 352.426 299.877 348.048L297.536 340.028L295.195 348.048C293.646 353.401 291.643 358.613 289.209 363.627C288.031 366.085 286.618 368.424 284.989 370.61C283.621 372.677 281.671 374.293 279.386 375.253H278.619H277.813C277.207 375.244 276.604 375.18 276.01 375.061C274.677 374.804 273.386 374.365 272.173 373.757C269.745 372.471 267.489 370.886 265.458 369.037C261.272 365.187 257.492 360.919 254.177 356.298C256.75 361.486 260.016 366.3 263.884 370.61C265.88 372.851 268.179 374.801 270.714 376.404C273.464 378.314 276.853 379.071 280.154 378.515C283.303 377.548 286.069 375.615 288.058 372.989C289.978 370.608 291.65 368.037 293.047 365.315C295.772 360.089 297.995 354.616 299.685 348.969H295.004C296.402 353.576 298.16 358.067 300.26 362.399C301.389 364.597 302.671 366.713 304.097 368.73C305.536 370.936 307.417 372.818 309.623 374.256C310.943 375.078 312.482 375.479 314.036 375.407C315.509 375.112 316.852 374.36 317.873 373.258C319.621 371.517 321.119 369.541 322.324 367.387C324.619 363.443 326.57 359.31 328.156 355.032V355.032Z" fill="#263238"/>
<path d="M419.403 332.2C433.14 330.819 446.877 329.86 460.614 329.246C474.351 328.632 488.165 328.171 501.902 328.363C508.808 328.363 515.677 328.363 522.545 328.555C529.414 328.747 536.321 329.054 543.189 329.438C556.964 330.013 570.663 331.356 584.438 332.546C577.608 331.433 570.816 330.282 563.948 329.438C557.079 328.593 550.211 327.826 543.343 327.289C529.567 326.099 515.754 325.716 501.902 325.562C488.049 325.409 474.274 326.061 460.499 327.097C453.631 327.634 446.724 328.325 439.855 329.092C432.987 329.86 426.157 330.896 419.403 332.2Z" fill="#263238"/>
<path d="M425.196 340.066C431.412 340.066 437.629 340.335 443.845 340.604C450.061 340.872 456.277 341.064 462.455 341.409C474.849 342.023 487.243 342.752 499.598 343.904C505.814 344.326 511.992 344.978 518.17 345.554L536.665 347.664L545.912 348.777L555.121 350.081C561.299 350.81 567.4 352 573.578 352.806C561.491 349.89 549.289 347.357 536.933 345.515C524.578 343.673 512.261 342.254 499.828 341.141C487.396 340.028 475.002 339.453 462.532 339.261C450.061 339.069 437.629 339.184 425.196 340.066Z" fill="#263238"/>
<path d="M421.858 347.971C427 348.7 432.141 349.429 437.206 350.273C442.271 351.118 447.413 351.847 452.555 352.729C462.762 354.533 472.968 356.259 483.252 358.255C493.535 360.25 503.55 362.283 513.68 364.471C523.81 366.658 533.864 368.96 544.032 371.186C539.069 369.523 534.119 367.95 529.182 366.466C524.194 365.085 519.206 363.665 514.141 362.399C504.126 359.713 493.958 357.564 483.789 355.53C473.621 353.497 463.337 351.923 453.092 350.619C442.847 349.314 432.257 348.278 421.858 347.971Z" fill="#263238"/>
<path d="M112.586 376.903C104.068 376.289 95.4726 376.174 86.9158 376.059C78.3591 375.944 69.8022 376.059 61.2071 376.558C44.0935 377.21 27.0183 378.63 9.98147 380.395C-7.05536 382.16 -24.0538 384.846 -40.8604 388.069C-49.2637 389.642 -57.6287 391.523 -65.9936 393.441C-70.1761 394.4 -74.2818 395.513 -78.4259 396.626L-90.8198 399.964C-74.0516 396.472 -57.3601 392.866 -40.4768 390.18C-32.0351 388.721 -23.5934 387.455 -15.1517 386.342C-6.71003 385.23 1.77003 384.04 10.2885 383.196C27.2485 381.086 44.2853 379.743 61.3222 378.63C78.359 377.517 95.4726 376.942 112.586 376.903Z" fill="#263238"/>
<path d="M106.524 387.417C91.1755 388.184 75.827 389.834 60.4785 391.868C45.13 393.902 29.7814 396.549 14.7399 399.542C-0.301643 402.535 -15.4966 405.988 -30.3847 410.017C-45.2727 414.046 -60.084 418.651 -74.5884 423.831C-67.106 421.912 -59.7771 419.533 -52.2947 417.73L-41.0902 414.775L-29.8858 412.089C-22.2116 410.248 -14.8443 408.598 -7.36193 406.871C0.120463 405.144 7.71795 403.648 15.2771 402.266C30.357 399.158 45.552 396.511 60.7854 394.093C68.4596 392.827 76.1339 391.676 83.8081 390.602C91.4824 389.527 98.8881 388.376 106.524 387.417Z" fill="#263238"/>
<path d="M111.742 396.664C99.0031 398.621 86.4558 401.422 73.9467 404.338C61.4377 407.255 49.0438 411.015 36.7266 414.737C24.4094 418.459 12.2457 422.718 0.235514 427.323C-5.82714 429.548 -11.7747 431.966 -17.7606 434.383C-23.7465 436.8 -29.5789 439.41 -35.4497 442.057C-23.3244 437.836 -11.2375 433.386 0.926227 429.318C13.0899 425.251 25.292 421.145 37.5708 417.385C49.8496 413.624 62.1284 409.941 74.4839 406.411C80.6617 404.607 86.8394 402.957 93.0556 401.307C99.2717 399.657 105.488 398.199 111.742 396.664Z" fill="#263238"/>
<path d="M383.948 512.545C383.738 510.325 384.177 508.091 385.213 506.115C386.248 504.14 387.835 502.508 389.781 501.417C387.912 500.281 386.454 498.578 385.619 496.556C384.784 494.534 384.615 492.299 385.138 490.175C387.287 483.191 395.882 483.92 395.882 483.92C394.213 482.498 393.103 480.528 392.752 478.363C392.4 476.198 392.83 473.979 393.963 472.102C396.956 465.962 406.165 469.224 406.165 469.224C404.417 467.364 403.352 464.966 403.143 462.422C402.933 459.878 403.593 457.339 405.014 455.218C407.009 451.842 413.341 452.264 413.763 451.688C428.19 432.963 458.427 394.975 533.174 413.317C589.964 427.322 607.768 482.155 605.389 529.889C605.389 530.618 609.226 530.963 609.226 536.143C609.34 537.393 609.089 538.65 608.504 539.76C607.918 540.87 607.022 541.787 605.926 542.398C607.129 543.428 607.94 544.843 608.219 546.402C608.499 547.962 608.231 549.57 607.461 550.955C606.746 552.453 605.546 553.666 604.056 554.398C602.566 555.129 600.872 555.335 599.249 554.984C600.247 556.902 605.082 559.933 602.396 566.879C601.598 568.818 600.165 570.43 598.331 571.447C596.498 572.465 594.372 572.83 592.304 572.481C593.413 573.975 594.037 575.772 594.091 577.632C594.146 579.491 593.63 581.323 592.611 582.879C591.729 584.414 585.359 584.798 584.285 585.489C645.679 617.145 741.223 616.186 760.6 623.86C824.028 648.916 749.396 710.119 694.64 691.048C691.187 689.859 696.827 683.374 700.473 683.642C762.174 689.283 790.952 644.465 753.924 634.067C729.904 627.352 635.779 628.503 579.373 596.425C574.768 593.815 571.699 600.262 570.586 601.528C541.424 630.843 480.183 639.4 441.39 617.759C391.891 590.17 387.44 545.966 388.668 521.831C387.096 520.875 385.822 519.499 384.988 517.859C384.154 516.219 383.794 514.379 383.948 512.545V512.545Z" fill="#455A64"/>
<path d="M410.54 453.721L411.73 460.129C412.19 462.547 415.836 461.511 415.567 459.132C415.337 458.019 415.145 456.906 414.953 455.832C415.147 455.651 415.315 455.445 415.452 455.218C431.798 425.173 465.335 415.235 497.451 414.429C495.821 415.871 494.389 417.523 493.192 419.341C492.917 419.166 492.597 419.073 492.271 419.072C477.016 418.175 461.859 422.043 448.9 430.142C435.941 438.24 425.821 450.168 419.941 464.274C419.941 464.005 419.596 463.813 419.443 463.583C418.023 461.588 414.723 463.583 416.143 465.501C457.2 522.406 527.419 553.755 596.488 533.841C596.996 533.708 597.432 533.379 597.698 532.926C597.964 532.473 598.04 531.932 597.907 531.423C597.775 530.914 597.446 530.479 596.993 530.213C596.539 529.946 595.999 529.871 595.49 530.003C585.995 532.739 576.252 534.525 566.405 535.337C581.753 524.322 593.982 509.515 601.898 492.361C602.934 490.136 599.634 488.217 598.636 490.443C590.532 508.141 577.707 523.262 561.57 534.148C561.317 534.318 561.109 534.546 560.962 534.813C560.815 535.08 560.734 535.378 560.726 535.682C557.195 535.682 553.742 535.682 550.25 535.682C553.166 533.342 556.006 530.924 558.769 528.469C559.157 528.31 559.481 528.027 559.69 527.663C572.787 515.862 584.074 502.196 593.188 487.104C593.204 487.042 593.204 486.975 593.188 486.913C594.032 485.493 594.914 484.073 595.72 482.615C595.916 482.182 595.944 481.692 595.799 481.24C595.654 480.788 595.347 480.405 594.936 480.166C594.526 479.928 594.041 479.85 593.576 479.948C593.111 480.045 592.7 480.312 592.42 480.696L592.075 481.349C581.523 447.237 561.378 417.921 523.736 411.551C523.423 411.49 523.099 411.51 522.796 411.611C522.494 411.712 522.222 411.89 522.009 412.127V412.127C521.857 412.094 521.7 412.094 521.549 412.127C521.526 411.88 521.446 411.641 521.313 411.431C521.181 411.22 521.001 411.044 520.788 410.917C520.574 410.79 520.334 410.715 520.086 410.698C519.838 410.682 519.59 410.724 519.361 410.822C514.133 412.753 509.596 416.196 506.33 420.712C503.064 425.229 501.215 430.615 501.02 436.186C501.02 436.186 501.02 436.493 501.02 436.646C498.249 436.858 495.493 437.242 492.77 437.797C492.789 437.696 492.789 437.592 492.77 437.49C491.846 432.243 492.853 426.838 495.603 422.275C498.354 417.712 502.663 414.298 507.735 412.664C510.037 411.897 509.039 408.213 506.737 409.019C504.833 409.66 503.006 410.509 501.289 411.551C501.149 411.247 500.92 410.992 500.632 410.821C500.344 410.649 500.011 410.57 499.677 410.592C466.217 410.976 430.877 420.991 413.15 451.458C412.819 451.344 412.464 451.319 412.12 451.385C411.776 451.452 411.456 451.608 411.192 451.837C410.928 452.066 410.728 452.361 410.614 452.692C410.5 453.023 410.474 453.378 410.54 453.721V453.721ZM582.405 496.736C582.405 463.698 557.272 434.267 529.99 417C563.028 425.749 580.18 453.875 589.466 486.068C587.202 489.637 584.938 493.244 582.405 496.736V496.736ZM570.894 511.355C571.041 494.195 567.408 477.213 560.253 461.615C553.097 446.018 542.595 432.187 529.491 421.106C556.658 438.757 581.177 468.648 578.568 502.031C575.959 505.216 573.426 508.324 570.74 511.355H570.894ZM515.87 416.732L516.752 416.233C532.789 426.972 545.82 441.627 554.61 458.81C563.399 475.993 567.657 495.136 566.98 514.425C566.968 514.735 567.048 515.042 567.21 515.307C564.908 517.725 562.606 520.104 560.15 522.406C561.084 502.608 557.595 482.851 549.935 464.572C542.275 446.292 530.638 429.949 515.87 416.732V416.732ZM532.638 534.455C534.832 499.054 525.576 463.886 506.238 434.152C505.981 433.73 505.567 433.427 505.087 433.308C505.428 431.089 506.087 428.931 507.044 426.9C529.322 453.795 540.967 487.925 539.775 522.828C539.775 523.337 539.977 523.825 540.337 524.185C540.697 524.544 541.185 524.747 541.693 524.747C542.202 524.747 542.69 524.544 543.05 524.185C543.41 523.825 543.612 523.337 543.612 522.828C544.837 486.687 532.676 451.366 509.461 423.638L509.001 423.293C510.102 421.688 511.39 420.219 512.838 418.919C527.821 432.184 539.53 448.739 547.045 467.285C554.561 485.832 557.681 505.867 556.159 525.821C553.013 528.622 549.79 531.385 546.413 533.956C546.172 534.14 545.977 534.379 545.844 534.652C545.71 534.925 545.643 535.225 545.646 535.529H543.458C543.458 533.649 543.458 531.692 543.458 529.85C543.458 528.008 539.621 527.433 539.621 529.85C539.621 531.653 539.621 533.457 539.43 535.222C537.204 535.03 535.055 534.8 532.561 534.455H532.638ZM526.805 497.657C527.112 499.575 527.381 501.494 527.65 503.451C516.111 499.981 505.322 494.385 495.84 486.951C495.743 486.701 495.582 486.481 495.373 486.313C495.164 486.144 494.915 486.034 494.65 485.992C483.466 476.926 474.425 465.5 468.174 452.532C470.38 450.884 472.701 449.397 475.119 448.081C486.331 469.885 504.491 487.33 526.729 497.657H526.805ZM478.611 446.354C482.611 444.441 486.805 442.961 491.12 441.941C487.7 446.453 485.685 451.871 485.326 457.52C482.81 453.957 480.541 450.227 478.534 446.354H478.611ZM462.15 457.866C463.147 456.868 464.184 455.87 465.296 454.911C466.14 456.714 467.1 458.479 468.059 460.168C467.811 460.328 467.612 460.554 467.483 460.82C464.714 465.565 463.499 471.058 464.008 476.528C464.517 481.999 466.725 487.173 470.323 491.325C468.627 493.06 466.704 494.558 464.606 495.776C461.101 490.347 459.024 484.12 458.568 477.674C458.111 471.227 459.291 464.77 461.996 458.902C462.129 458.587 462.182 458.244 462.15 457.904V457.866ZM470.246 463.775C472.699 467.727 475.417 471.509 478.381 475.094C478.1 475.345 477.911 475.683 477.844 476.054C477.149 480.494 475.428 484.712 472.817 488.371C470.023 485.007 468.283 480.895 467.812 476.548C467.341 472.201 468.161 467.812 470.169 463.928L470.246 463.775ZM523.39 481.771C524.388 485.608 525.309 489.253 526.076 493.014C522.407 491.171 518.846 489.121 515.409 486.874C515.567 486.727 515.686 486.542 515.754 486.337C516.358 484.868 517.42 483.634 518.783 482.818C520.145 482.003 521.734 481.649 523.314 481.809L523.39 481.771ZM512.339 484.841C508.555 482.222 504.953 479.351 501.557 476.245V476.015C502.528 472.551 504.453 469.43 507.113 467.008C509.772 464.586 513.059 462.96 516.599 462.317C518.727 467.438 520.597 472.663 522.201 477.972C520.054 478.042 517.974 478.731 516.211 479.956C514.447 481.182 513.076 482.891 512.263 484.879L512.339 484.841ZM494.88 469.492C495.595 465.192 497.593 461.208 500.613 458.065C503.634 454.921 507.534 452.765 511.802 451.88V451.88C512.915 454.143 514.028 456.407 515.064 458.748C511.261 459.561 507.73 461.336 504.808 463.902C501.886 466.468 499.67 469.74 498.372 473.406C497.183 472.178 495.993 470.912 494.804 469.607L494.88 469.492ZM514.066 530.387C520.307 528.219 525.598 523.946 529.031 518.3C529.236 523.416 529.236 528.533 529.031 533.649C523.953 532.862 518.92 531.811 513.951 530.502L514.066 530.387ZM496.032 524.286C500.236 521.833 503.738 518.337 506.198 514.136C508.658 509.936 509.993 505.172 510.075 500.304C515.549 503.092 521.264 505.378 527.151 507.134C527.499 507.251 527.877 507.251 528.225 507.134C528.417 508.784 528.532 510.434 528.686 512.084C528.419 512.122 528.168 512.232 527.959 512.4C527.75 512.569 527.59 512.791 527.496 513.043C525.979 516.654 523.632 519.857 520.645 522.39C517.658 524.924 514.116 526.717 510.306 527.624C509.975 527.685 509.672 527.846 509.438 528.087C509.204 528.328 509.052 528.636 509.001 528.968C504.358 527.701 500.176 526.128 495.916 524.401L496.032 524.286ZM474.39 513.811C479.654 512.418 484.419 509.569 488.138 505.592C491.857 501.615 494.38 496.671 495.418 491.325C498.831 493.882 502.407 496.215 506.123 498.309C506.424 503.214 505.256 508.097 502.769 512.334C500.281 516.572 496.586 519.972 492.156 522.099C491.937 522.198 491.741 522.342 491.581 522.521C485.685 519.957 479.945 517.048 474.39 513.811V513.811ZM464.913 507.825C476.693 505.791 482.947 495.201 487.59 484.802C489.048 486.107 490.506 487.373 492.041 488.639C491.383 494.062 488.993 499.127 485.225 503.082C481.457 507.036 476.513 509.669 471.129 510.588C470.737 510.65 470.381 510.855 470.131 511.163C468.366 510.204 466.639 509.014 464.913 507.863V507.825ZM457.622 502.645C463.472 501.296 468.807 498.286 472.987 493.977C477.166 489.668 480.012 484.244 481.182 478.356C482.333 479.622 483.484 480.888 484.712 482.193C480.415 491.939 474.736 503.412 462.802 504.41C462.484 504.438 462.179 504.548 461.917 504.73C461.655 504.912 461.444 505.158 461.306 505.446C460.039 504.487 458.85 503.566 457.622 502.683V502.645ZM448.912 476.974C450.867 472.866 453.178 468.937 455.819 465.233C454.495 470.692 454.282 476.362 455.191 481.905C456.101 487.449 458.115 492.753 461.114 497.503C459.07 498.363 456.932 498.981 454.744 499.345C452.454 496.433 450.791 493.079 449.86 489.493C448.929 485.907 448.75 482.168 449.334 478.509C449.382 478.244 449.37 477.971 449.296 477.712C449.223 477.453 449.092 477.213 448.912 477.013V476.974ZM443.156 490.596C443.885 488.716 444.614 486.759 445.382 484.994C445.578 488.298 446.344 491.543 447.645 494.587C446.111 493.321 444.614 492.016 443.156 490.788V490.596ZM432.143 479.43C432.472 479.203 432.705 478.861 432.796 478.471C436.545 465.748 443.81 454.342 453.754 445.565C463.699 436.788 475.919 430.996 489.01 428.857C488.452 432.043 488.452 435.302 489.01 438.488V438.488C480.439 440.701 472.4 444.616 465.373 449.999C452.48 459.784 445.765 473.252 440.086 487.91C437.4 485.147 434.753 482.308 432.143 479.468V479.43ZM491.082 422.794C490.775 423.485 490.468 424.176 490.199 424.866H489.815C475.898 426.852 462.834 432.761 452.152 441.9C441.469 451.04 433.611 463.033 429.496 476.476C427.04 473.598 424.661 470.643 422.359 467.65C422.445 467.549 422.51 467.432 422.551 467.305C427.868 453.643 437.346 441.998 449.644 434.017C461.943 426.037 476.438 422.124 491.082 422.833V422.794ZM497.106 440.752C499.852 440.36 502.62 440.142 505.394 440.1C507.044 442.824 508.617 445.625 510.114 448.426C505.76 449.474 501.764 451.661 498.534 454.763C495.304 457.864 492.957 461.769 491.734 466.077C490.813 465.003 489.969 463.928 489.125 462.815C488.625 458.792 489.088 454.708 490.475 450.899C491.863 447.089 494.135 443.664 497.106 440.905V440.752Z" fill="#263238"/>
</g>
<defs>
<clipPath id="clip0_27_177">
<rect width="464" height="464" fill="white"/>
</clipPath>
</defs>
</svg>
